<svg id="Layer_1" data-name="Layer 1" xmlns="http://www.w3.org/2000/svg" viewBox="0 0 1127.5 1552.3"><defs><style>.cls-1{fill:#121212;}.cls-2{fill:#ececed;}.cls-3{fill:#f6ba8d;}.cls-4{fill:#331b19;}.cls-5{fill:#0da2b9;}.cls-6{fill:#f4b98c;}.cls-7{fill:#b0afb0;}.cls-8{fill:#e9e9ea;}.cls-9{fill:#352e35;}.cls-10{fill:#b1afb0;}.cls-11{fill:#d3d3d2;}.cls-12{fill:#d4d4d3;}.cls-13{fill:#e7e6e6;}.cls-14{fill:#e4e3e3;}.cls-15{fill:#bab8b9;}.cls-16{fill:#fbfcfc;}</style></defs><path class="cls-1" d="M213.7,1230.9c1-7.4,2.2-14.9,3-22.4,2.6-25.6,5-51.3,7.7-77q3.4-34.9,7.3-70c2.8-24.8,5.6-49.5,8.7-74.3s6.4-51.5,10.5-77.1c3.2-21,7.8-41.8,11.7-62.7,1.9-10.2,7.4-18.2,16.4-23.2,19.3-11,38.7-22,58.4-32.2,14.5-7.5,29.7-13.8,44.5-20.9a12.4,12.4,0,0,0,5.6-5c9.6-19.4,25.3-30.6,46.2-35.3,7.8-1.7,15.3-4.3,22.9-6.7,1.2-.4,2.3-2.1,2.7-3.5,1.5-4.5,2.7-9.2,4.2-14.3L453,698.5c-15.1-11-23.1-27-29.1-43.8-6.5-18.4-11.5-37.4-17.2-56.1l-1.2-4.8c-11.6,4.1-17.4,2.2-23.8-8.4-9.1-15.2-13.3-32.2-16.7-49.3s-5.9-32.8-3.2-49.5c1-6.8,2.6-13.4,9.6-17.1,1-.6,1.3-3.1,1.2-4.7-1.7-16.2-4.2-32.3-5.2-48.6-1.7-28.1-.4-56.1,10.7-82.4,13.7-32.3,37.9-54.9,68.8-70.8,24.3-12.5,50.3-18.6,77.3-21a14.2,14.2,0,0,0,3.5-1.1h38l19.5,2c24.7,2.2,48.8,6.6,71.3,17.3,43.1,20.5,67.8,54.8,74.3,102,5,35.8-.3,70.9-8.2,105.8-.4,1.9.5,4.2,1,6.3,1.7,6.5,4.7,13,4.8,19.6.7,29.4-5.3,57.7-16.9,84.8a53.5,53.5,0,0,1-4.1,7.4c-3.8,6-8.6,10.5-16.4,10-2.4,12-4.1,24.1-7.5,35.7-3.8,13.3-8.2,26.7-14.3,39-4.3,8.7-11.7,16-18.3,23.4-2.2,2.5-2.8,4.2-1.8,7.2,2.2,6.3,4.3,12.6,5.9,19,.9,3.5,2.8,4.8,6,5.5,15.7,3.2,31.5,6.2,47.1,10.1,19.9,5,37.7,14,50.7,30.5a57.7,57.7,0,0,1,8.3,13.6c1.7,4.1,4.4,6,8.2,7.7,21.2,9.8,42.2,19.9,63.3,29.9a30.3,30.3,0,0,1,17,19.2c5.8,19,12.4,38,15.8,57.4,8.1,46.2,15.3,92.5,21.3,139s10.3,94.5,15.2,141.9c1.9,19,3.3,38.1,5,57.2.1.5.6,1,.8,1.5v6a34.4,34.4,0,0,1-6.3,1H220.1a36.9,36.9,0,0,1-6.4-1ZM774.2,796.3h-1.1l.3,1.1a200.9,200.9,0,0,1,3.3,66.5c-.5,4.4.7,7.5,3.1,11,5.5,8,11.3,16,11.3,26.6,0,1.3,1.9,2.8,3.1,4,10.4,9.6,21.4,18.6,31.1,28.8s18.2,23.4,19.9,38.9c2.2,19.5,4.8,39,6.2,58.6,1.2,15.9,2.2,31.9,1.1,47.8-1.5,22.3-16.6,39.9-36.7,44.8-5.9,1.5-12.2,1.3-18.3,1.9-12.2,1.2-24.4,2.7-36.7,3.6a12.5,12.5,0,0,1-8.4-3.1c-10.2-9.2-8.5-26.4,3.1-33.6,2-1.3,5-2.5,7-1.9,12.1,3.1,24,6.7,36,10,3,.8,6.4,1.6,9.4,1.2,9-1.3,15.7-6.6,18.4-15s4.2-16,3.8-23.8c-1.5-25.8-4.2-51.5-6.5-77.2-.9-10.6-2.5-21.3-9.9-29.7s-15.8-17.5-24.3-26.9c-3.2,8.1-8.1,10.7-15.6,8.4,0,6.2-.1,12.1.1,17.9.1,3.9-1.5,5.8-5.6,5.8h-105c-4,0-5.7-1.7-5.6-5.8.1-7.7,0-15.4,0-24a43.1,43.1,0,0,0-2.9,3.5c-16.3,27.1-32.8,54-48.7,81.3a36.9,36.9,0,0,0-4.4,25.5c1.4,7.9,9.7,17.5,16,18.4,11.9,1.7,23.9,3.6,35.9,5.2,5.4.8,8.6,3.7,10.5,8.6,4.5,11.5-.7,23.9-12.1,28.4-3.8,1.5-7.2,1.5-10.9-.8-13-7.9-26.3-15.5-39.3-23.4s-19.8-17.2-22.7-30.9a60,60,0,0,1,7.2-43.3c15.2-26.4,31.1-52.3,46.8-78.4,5.6-9.4,13.6-16.2,23-21.6,16.2-9.3,33.8-14.4,51.9-18.3,3.1-.6,4.6-2.1,6.3-4.6a52.6,52.6,0,0,1,32.1-22.9c1.5-14.6,1.6-29.8-1.2-45a99,99,0,0,0-4.6-17.8c-3.9-10.1-10.2-17.9-21.2-21.5-13.7-4.5-27-9.8-40.6-14.8-.7,1.4-1.1,2.3-1.6,3.2q-45.6,98.6-91.3,197c-5.7,12.3-11.3,24.7-17.2,37-1,2-3.3,5-4.7,4.8s-3.8-2.9-5.5-4.6a11,11,0,0,1-1.5-2.6L450.8,799.2q-10.8-19.7-21.4-39.3a52.4,52.4,0,0,1-5.9,2.4c-9.6,2-13.5,9.2-15.4,17.6s-3.3,15.5-3.2,23.2c.6,22.8,1.8,45.6,3.3,68.3,1.2,18.4,3,36.8,4.9,55.2,2.8,26.7,5.8,53.3,8.7,79.9,1.7,14.5,3.5,29,5.3,43.5l3.2.8c22.7,4.3,40.4,24.4,41.4,46.9,1.1,24.8-14,46.3-37.2,52.8a51.4,51.4,0,0,1-58.7-24.1c-13.5-24-5.9-53.7,17.5-68.8,2-1.2,3.8-2.1,3.3-5.2-1.4-8.9-2.4-17.9-3.4-26.8-3.2-28.4-6.5-56.9-9.4-85.3-2.5-23.9-5-47.8-6.5-71.7-1.1-18.6-1.2-37.3-.6-55.9.3-10.6,2.7-21.2,4.2-31.9-10.8,5-22,9.7-32.8,15.3-21.1,11-42.1,22.5-63.1,34a27.2,27.2,0,0,0-14.6,20.2c-5.1,30-10.9,59.9-15.5,89.9-4.2,27.8-7.2,55.8-10.5,83.7-3,25.8-5.8,51.6-8.6,77.4s-5.1,49.4-7.6,74q-2.7,28.2-5.2,56.2c.1.6.3,1.2.4,1.8l5.5.3H899.1c1.6,0,3.2-.3,4.9-.4h.1a18.6,18.6,0,0,0,.4-3.3c-1.6-19-3-38.1-5-57.2-4.7-45.7-8.9-91.4-14.9-137s-13.3-92.4-21.1-138.5c-3-17.9-8.9-35.3-13.8-52.9-2.7-9.6-8.5-16.7-17.8-20.9C812.6,814.4,793.5,805.3,774.2,796.3ZM460.6,437.5c-.3,1.3-.6,2.1-.7,2.9a201.9,201.9,0,0,1-13.1,46.9c-6.4,15.1-14.3,29.3-25.5,41.4a6.8,6.8,0,0,1-5.5,1.9c-1.3-.3-2.4-2.9-2.9-4.7s-.7-5.9-1.2-8.8c-2.1-12.2-4.7-24.2-11.7-34.7-2.8-4.2-6.4-6.9-11.5-6.6-3.4.3-6.9,2-10.1,1.4s-6,1.9-7.1,5.2a40.5,40.5,0,0,0-1.6,7.7c-1.5,17,1,33.6,4.7,50,3.1,14.2,6.9,28.2,14.4,40.8,5.1,8.7,8.7,8.9,15.4,1.6,1.1-1.1,3.3-2.3,4.6-2s2.4,2.4,3.3,3.8a8.8,8.8,0,0,1,.7,2.9c5.6,26.2,12.7,51.9,23.9,76.4A77.3,77.3,0,0,0,465,697a209.3,209.3,0,0,0,60.2,27.1c10.7,2.8,21.4,4.7,32.6,3.3,24.7-3.1,46.9-12.9,68.3-25.2,23.5-13.4,39.1-32.9,45.6-59.1,4.3-17,7.5-34.4,11-51.6.9-4.6,2.8-6.5,6.5-4.8s7.2.6,9.4-2.7a87.6,87.6,0,0,0,7.1-13.1,194.1,194.1,0,0,0,13.8-57.5c.8-9.7-.1-19.6-.9-29.3a10.7,10.7,0,0,0-4.7-7c-9.3-4.8-19.5-.6-22,9.4-3.1,12.7-5.4,25.7-7.9,38.5-.5,2.9-.5,6-4.4,6s-4.2-3.2-4.5-6c-2.9-24.1-5.6-48.3-8.4-72.4-1.7-14.5-3.4-28.9-5.1-43.5-11.3,4.3-22,8.6-33,12.4-34.2,11.9-69.3,20.1-105.6,22.1A203.8,203.8,0,0,1,460.6,437.5Zm219.5,54.8h1.2a43.4,43.4,0,0,1,1.6-6.2c1.7-4.2,3.1-8.8,5.8-12.5,4.8-6.6,12.4-7.2,19.8-6.7,3.8.2,5.9-.8,6.5-4.9s2.6-10.3,3.3-15.5c2-16.3,3.9-32.5,5.3-48.8.7-7.8,1-15.8-.1-23.5-1.6-12.4-3.5-24.9-7.2-36.8-6.4-20.1-18.3-37-34.4-50.9a128.5,128.5,0,0,0-43-24.4c-22.6-7.8-46.1-11-69.8-12-18-.7-36.2.3-54.2,1.9-26.6,2.2-51.4,10.7-74.5,24.4a139.5,139.5,0,0,0-46.8,45.8c-12.8,20.4-16.9,43.3-17.8,66.9a360.1,360.1,0,0,0,4.9,73.3c.6,3.5,1.7,5.1,5.6,3.9,1.7-.6,3.9-.2,5.8.3,9.5,2.1,15.2,8.8,18.6,17.2,4.1,10.2,7.1,20.8,10.6,31.1a11,11,0,0,0,2.2-2.7c5.1-9.3,10.6-18.4,14.9-28a152.5,152.5,0,0,0,13.4-50.2c.5-5.3,2.1-6.6,7.4-6.1a37.7,37.7,0,0,1,4.3,1c12.4,2,24.7,4.7,37.2,5.7,10.8.8,21.9-.1,32.8-.9a202,202,0,0,0,28-3.4c14.2-3,28.3-6.7,42.4-10.4a335.1,335.1,0,0,0,57.3-20.7c5.4-2.5,8-.8,8.6,5.1.9,10.1,2.1,20.1,3.3,30.1,1.5,12.8,3.1,25.6,4.6,38.4ZM561.6,966h.8c2.4-25.8,4.8-51.5,7.3-77.3a16.7,16.7,0,0,1,2.8-7.7q43.9-62.7,88.3-125.2c3.9-5.5,3.8-6.2-1.6-10.9-31.3,19.8-64.8,32.9-102.4,33.4s-71.1-14.4-102.5-33.4c-4.1,2.7-1.5,5,0,7.2q44.6,65.1,89,130.3a17.2,17.2,0,0,1,2.5,5.9c3.7,18.2,7.3,36.5,11,54.7Zm79.3-262.8c-9.2,5.2-18,10.7-27.2,15.2-18.2,9.1-37.2,16.1-57.8,17.5-23.3,1.6-44.6-6.3-65.4-15.3-6.6-2.9-12.9-6.4-19.6-9.7-2.8,9.8-5.6,19.2-8.2,28.3.4.6.5.9.8,1.1,35.8,21.6,73.5,35.1,116.2,27.6,25.1-4.5,48.2-13.8,69.8-27.1,1.1-.7,2.3-2.7,2-3.7C648.1,725.7,644.5,714.3,640.9,703.2ZM423.1,1085.7c-.8-5.9-1.6-11.3-2.2-16.8-5.1-45.1-10.7-90.2-15.2-135.4q-5.8-58.1-9.2-116.4c-.8-12.9,1.2-26.3,3.6-39.1s10.1-23.4,23.3-27.6c5.5-1.8,6.6-5.1,7.4-10.1l-4,1.2c-15.7,5.2-26.3,15.9-32.9,30.7-7.9,17.8-9.9,36.7-9.8,55.7s1.3,36.6,2.7,54.8q3.1,38.8,7.4,77.5c3.3,30.6,7,61.2,10.6,91.7,1.4,11.7,2.9,23.4,4.4,35.5Zm16-341.2c-3.3,6-3,10.7.1,16.3,30.9,56.2,61.4,112.6,92,168.9l21.1,38.7a11.1,11.1,0,0,0,.2-5.1c-4-19.8-8.2-39.7-11.9-59.6-1.9-9.9-5.1-18.8-11.1-27.2-14.9-20.8-29.1-42.2-43.5-63.3ZM570.5,970.6l1.2.2,97.5-210.4-1.2-.8-.9,1.7L579.7,885.2a13.3,13.3,0,0,0-1.9,6c-1.3,12.7-2.5,25.4-3.7,38.2Zm212.7-61.3c2.1-11-4-19.4-8.9-27.9-1.7-2.9-4.3-6.2-7.2-7.2-7-2.3-14.4-3.6-21.7-5.1a9.6,9.6,0,0,0-5.2.9c-17,8-23.6,23.8-29.3,40.1-.9,2.7-.1,4.9,3.2,5.5s9.4,1.9,14.1,3l45.9,10.9c5,1.2,6.7.3,7.5-4.9S782.7,914.4,783.2,909.3Zm-15-44c2.2-19.1,2.2-37.5-1.1-55.8-2.3-13-5.6-25.7-13.7-36.5-11.3-14.8-26.9-23.1-44.3-28-8.2-2.4-16.7-3.8-25.3-5.6-.8,4.4-1.5,7.8-2.2,11.4l5.1,1.1c14.5,2.9,28.3,7.4,40.7,15.7s19.4,17.9,23.1,31.4c4.9,17.8,6.1,36,4.7,54.4-.2,2.9-.4,5.8-.6,8.9ZM791.7,914c-1.7,5.3-.2,8.3,3.6,11.6a213.8,213.8,0,0,1,19.3,18.8c8.8,9.7,15.2,20.7,16.4,34.4,1.8,21.4,4.7,42.7,6.4,64,.9,11.9,1.3,24,.1,35.9-1.6,17-12.4,28.6-27.2,31.8-2.4.5-4.8.7-7.2,1.1-.1,1.4-.2,2.4-.2,3.4s.1,1.8.1,3c12.9-.7,23.7-5,31.5-15.2s11.7-24.6,10.7-38.6c-1.9-25.9-4.4-51.7-6.5-77.6-1.2-14.1-4.2-27.5-13.1-39.1A188.7,188.7,0,0,0,791.7,914Zm-84.6-19c-19.5,4.5-38.4,9.9-54.6,22A41.1,41.1,0,0,0,642,928.1c-16.1,26-31.8,52.2-47.5,78.5a59.2,59.2,0,0,0-8.2,27.9c-.9,17,8.1,32.2,23.1,38.6l2.4-5.6c-13.6-7.4-20.5-18.9-18.7-34.1a64,64,0,0,1,7.4-23.5c15-26.2,30.8-52,46.8-77.7,2.9-4.8,7.6-8.8,12.3-12.1,11.6-8.3,25.1-12.8,38.9-16.1C703.5,902.8,706.3,900.4,707.1,895Zm58.5,45.1H666.2v13.2h99.4Zm-337,119.1c-1.2,4.7,1.8,5.5,4.9,6.6,16.7,6.2,26,21.5,24.4,39.8-1.5,16.3-14.2,29.5-31.5,32.8-15.6,3-32.4-5.7-39.7-20.5a37.4,37.4,0,0,1,8.8-45c2.9-2.5,3.8-4.6,1.9-7.9a42.6,42.6,0,0,0-16.8,52.1c7.6,19,28.1,30.4,47.5,26.3,21.3-4.4,36-22.3,35.5-43.2S447.8,1062,428.6,1059.2ZM658.4,931.3h81a179.6,179.6,0,0,0-23.9-6.5c-7.4-1.5-14.1-3.5-13.5-13.4C686.1,916.1,671,920.6,658.4,931.3ZM433,1090.6c-2.4,1.1-4.5,2.7-6.8,3.1-6,1.1-12.2,1.8-18.3,2.3-3.4.2-4.1,1.8-4.2,4.7a16.9,16.9,0,0,0,12.2,16.4,16.7,16.7,0,0,0,18.7-7A16.1,16.1,0,0,0,433,1090.6Zm-32.7-8.5c-10.8,8.7-10.9,26.2-3.4,36.3s21.7,14.6,33,10.4,21.1-17.5,19.8-29.8-9.7-22.9-19.1-23.8a16.4,16.4,0,0,0,4.4,5.3c8.8,6.2,12.4,15,10.4,25.2s-7.9,17.5-18.2,19.8-19.7.2-26.2-8.2-8.5-17.2-3.5-27.1C398.8,1087.7,399.4,1084.8,400.3,1082.1Zm243.9-8.8c-7.2-1.2-13.8-2.5-20.5-3.4a5.2,5.2,0,0,0-4.3,2.1c-1.1,2.1-3.1,5,.1,7.1,6,3.7,12.1,7.2,18.4,11Zm125.8,47c7.1-.6,13.8-1.1,20.4-1.8,3.6-.4,4-3.4,4.3-6.2s-2.1-3.6-4.3-4.3l-9-2.7-10.2-2.8C770.8,1108.6,770.4,1113.8,770,1120.3ZM663.8,735.1l5.6,8.4c1.5-2,2.6-3.7,4.1-5.8Z"/><path class="cls-2" d="M904,1233.2c-1.7.1-3.3.4-4.9.4H228.9l-5.5-.3.5-.6.3-.2-.4-.5-.8-.5q2.5-28.1,5.2-56.2,3.8-36.9,7.6-74c2.8-25.8,5.6-51.6,8.6-77.4,3.3-27.9,6.3-55.9,10.5-83.7,4.6-30,10.4-59.9,15.5-89.9A27.2,27.2,0,0,1,285,830.1c21-11.5,42-23,63.1-34,10.8-5.6,22-10.3,32.8-15.3-1.5,10.7-3.9,21.3-4.2,31.9-.6,18.6-.5,37.3.6,55.9,1.5,23.9,4,47.8,6.5,71.7,2.9,28.4,6.2,56.9,9.4,85.3,1,8.9,2,17.9,3.4,26.8.5,3.1-1.3,4-3.3,5.2-23.4,15.1-31,44.8-17.5,68.8a51.4,51.4,0,0,0,58.7,24.1c23.2-6.5,38.3-28,37.2-52.8-1-22.5-18.7-42.6-41.4-46.9l-3.2-.8c-1.8-14.5-3.6-29-5.3-43.5-2.9-26.6-5.9-53.2-8.7-79.9-1.9-18.4-3.7-36.8-4.9-55.2-1.5-22.7-2.7-45.5-3.3-68.3-.1-7.7,1.5-15.6,3.2-23.2s5.8-15.6,15.4-17.6a52.4,52.4,0,0,0,5.9-2.4q10.7,19.6,21.4,39.3L557,994.5a11,11,0,0,0,1.5,2.6c1.7,1.7,3.5,4.3,5.5,4.6s3.7-2.8,4.7-4.8c5.9-12.3,11.5-24.7,17.2-37q45.8-98.5,91.3-197c.5-.9.9-1.8,1.6-3.2,13.6,5,26.9,10.3,40.6,14.8,11,3.6,17.3,11.4,21.2,21.5a99,99,0,0,1,4.6,17.8c2.8,15.2,2.7,30.4,1.2,45a52.6,52.6,0,0,0-32.1,22.9c-1.7,2.5-3.2,4-6.3,4.6-18.1,3.9-35.7,9-51.9,18.3-9.4,5.4-17.4,12.2-23,21.6-15.7,26.1-31.6,52-46.8,78.4a60,60,0,0,0-7.2,43.3c2.9,13.7,10.9,23.8,22.7,30.9s26.3,15.5,39.3,23.4c3.7,2.3,7.1,2.3,10.9.8,11.4-4.5,16.6-16.9,12.1-28.4-1.9-4.9-5.1-7.8-10.5-8.6-12-1.6-24-3.5-35.9-5.2-6.3-.9-14.6-10.5-16-18.4a36.9,36.9,0,0,1,4.4-25.5c15.9-27.3,32.4-54.2,48.7-81.3a43.1,43.1,0,0,1,2.9-3.5c0,8.6.1,16.3,0,24-.1,4.1,1.6,5.8,5.6,5.8h105c4.1,0,5.7-1.9,5.6-5.8-.2-5.8-.1-11.7-.1-17.9,7.5,2.3,12.4-.3,15.6-8.4,8.5,9.4,16.6,18,24.3,26.9s9,19.1,9.9,29.7c2.3,25.7,5,51.4,6.5,77.2.4,7.8-1.4,16.2-3.8,23.8s-9.4,13.7-18.4,15c-3,.4-6.4-.4-9.4-1.2-12-3.3-23.9-6.9-36-10-2-.6-5,.6-7,1.9-11.6,7.2-13.3,24.4-3.1,33.6a12.5,12.5,0,0,0,8.4,3.1c12.3-.9,24.5-2.4,36.7-3.6,6.1-.6,12.4-.4,18.3-1.9,20.1-4.9,35.2-22.5,36.7-44.8,1.1-15.9.1-31.9-1.1-47.8-1.4-19.6-4-39.1-6.2-58.6-1.7-15.5-9.5-28.1-19.9-38.9s-20.7-19.2-31.1-28.8c-1.2-1.2-3.1-2.7-3.1-4,0-10.6-5.8-18.6-11.3-26.6-2.4-3.5-3.6-6.6-3.1-11a200.9,200.9,0,0,0-3.3-66.5l.8-1c19.3,9,38.4,18.1,57.7,27,9.3,4.2,15.1,11.3,17.8,20.9,4.9,17.6,10.8,35,13.8,52.9,7.8,46.1,15.1,92.2,21.1,138.5s10.2,91.3,14.9,137c2,19.1,3.4,38.2,5,57.2a18.6,18.6,0,0,1-.4,3.3l-.8-.6Z"/><path class="cls-3" d="M460.6,437.5a203.8,203.8,0,0,0,62.4,6.1c36.3-2,71.4-10.2,105.6-22.1,11-3.8,21.7-8.1,33-12.4,1.7,14.6,3.4,29,5.1,43.5,2.8,24.1,5.5,48.3,8.4,72.4.3,2.8.5,6.1,4.5,6s3.9-3.1,4.4-6c2.5-12.8,4.8-25.8,7.9-38.5,2.5-10,12.7-14.2,22-9.4a10.7,10.7,0,0,1,4.7,7c.8,9.7,1.7,19.6.9,29.3a194.1,194.1,0,0,1-13.8,57.5,87.6,87.6,0,0,1-7.1,13.1c-2.2,3.3-5.2,4.8-9.4,2.7s-5.6.2-6.5,4.8c-3.5,17.2-6.7,34.6-11,51.6-6.5,26.2-22.1,45.7-45.6,59.1-21.4,12.3-43.6,22.1-68.3,25.2-11.2,1.4-21.9-.5-32.6-3.3A209.3,209.3,0,0,1,465,697a77.3,77.3,0,0,1-28.3-33.4c-11.2-24.5-18.3-50.2-23.9-76.4a8.8,8.8,0,0,0-.7-2.9c-.9-1.4-2-3.5-3.3-3.8s-3.5.9-4.6,2c-6.7,7.3-10.3,7.1-15.4-1.6-7.5-12.6-11.3-26.6-14.4-40.8-3.7-16.4-6.2-33-4.7-50a40.5,40.5,0,0,1,1.6-7.7c1.1-3.3,2.4-5.9,7.1-5.2s6.7-1.1,10.1-1.4c5.1-.3,8.7,2.4,11.5,6.6,7,10.5,9.6,22.5,11.7,34.7.5,2.9.5,6,1.2,8.8s1.6,4.4,2.9,4.7a6.8,6.8,0,0,0,5.5-1.9c11.2-12.1,19.1-26.3,25.5-41.4a201.9,201.9,0,0,0,13.1-46.9C460,439.6,460.3,438.8,460.6,437.5Z"/><path class="cls-4" d="M680.1,492.3l-2.4-19.4c-1.5-12.8-3.1-25.6-4.6-38.4-1.2-10-2.4-20-3.3-30.1-.6-5.9-3.2-7.6-8.6-5.1A335.1,335.1,0,0,1,603.9,420c-14.1,3.7-28.2,7.4-42.4,10.4a202,202,0,0,1-28,3.4c-10.9.8-22,1.7-32.8.9-12.5-1-24.8-3.7-37.2-5.7a37.7,37.7,0,0,0-4.3-1c-5.3-.5-6.9.8-7.4,6.1a152.5,152.5,0,0,1-13.4,50.2c-4.3,9.6-9.8,18.7-14.9,28a11,11,0,0,1-2.2,2.7c-3.5-10.3-6.5-20.9-10.6-31.1-3.4-8.4-9.1-15.1-18.6-17.2-1.9-.5-4.1-.9-5.8-.3-3.9,1.2-5-.4-5.6-3.9a360.1,360.1,0,0,1-4.9-73.3c.9-23.6,5-46.5,17.8-66.9a139.5,139.5,0,0,1,46.8-45.8c23.1-13.7,47.9-22.2,74.5-24.4,18-1.6,36.2-2.6,54.2-1.9,23.7,1,47.2,4.2,69.8,12a128.5,128.5,0,0,1,43,24.4c16.1,13.9,28,30.8,34.4,50.9,3.7,11.9,5.6,24.4,7.2,36.8,1.1,7.7.8,15.7.1,23.5-1.4,16.3-3.3,32.5-5.3,48.8-.7,5.2-2.6,10.3-3.3,15.5s-2.7,5.1-6.5,4.9c-7.4-.5-15,.1-19.8,6.7-2.7,3.7-4.1,8.3-5.8,12.5a43.4,43.4,0,0,0-1.6,6.2Z"/><path class="cls-5" d="M561.6,966l-4.8-23.1c-3.7-18.2-7.3-36.5-11-54.7a17.2,17.2,0,0,0-2.5-5.9q-44.4-65.2-89-130.3c-1.5-2.2-4.1-4.5,0-7.2,31.4,19,64.5,34,102.5,33.4s71.1-13.6,102.4-33.4c5.4,4.7,5.5,5.4,1.6,10.9q-44.2,62.5-88.3,125.2a16.7,16.7,0,0,0-2.8,7.7c-2.5,25.8-4.9,51.5-7.3,77.3Z"/><path class="cls-6" d="M640.9,703.2c3.6,11.1,7.2,22.5,10.6,33.9.3,1-.9,3-2,3.7-21.6,13.3-44.7,22.6-69.8,27.1-42.7,7.5-80.4-6-116.2-27.6-.3-.2-.4-.5-.8-1.1,2.6-9.1,5.4-18.5,8.2-28.3,6.7,3.3,13,6.8,19.6,9.7,20.8,9,42.1,16.9,65.4,15.3,20.6-1.4,39.6-8.4,57.8-17.5C622.9,713.9,631.7,708.4,640.9,703.2Z"/><path class="cls-7" d="M423.1,1085.7l-13.9,1.7c-1.5-12.1-3-23.8-4.4-35.5-3.6-30.5-7.3-61.1-10.6-91.7q-4.2-38.7-7.4-77.5c-1.4-18.2-2.6-36.5-2.7-54.8s1.9-37.9,9.8-55.7c6.6-14.8,17.2-25.5,32.9-30.7l4-1.2c-.8,5-1.9,8.3-7.4,10.1-13.2,4.2-20.8,14.6-23.3,27.6s-4.4,26.2-3.6,39.1q3.3,58.4,9.2,116.4c4.5,45.2,10.1,90.3,15.2,135.4C421.5,1074.4,422.3,1079.8,423.1,1085.7Z"/><path class="cls-8" d="M439.1,744.5,486,813.2c14.4,21.1,28.6,42.5,43.5,63.3,6,8.4,9.2,17.3,11.1,27.2,3.7,19.9,7.9,39.8,11.9,59.6a11.1,11.1,0,0,1-.2,5.1l-21.1-38.7c-30.6-56.3-61.1-112.7-92-168.9C436.1,755.2,435.8,750.5,439.1,744.5Z"/><path class="cls-8" d="M570.5,970.6l3.6-41.2c1.2-12.8,2.4-25.5,3.7-38.2a13.3,13.3,0,0,1,1.9-6l87.4-123.9.9-1.7,1.2.8L571.7,970.8Z"/><path class="cls-9" d="M783.2,909.3c-.5,5.1-.8,10.2-1.6,15.3s-2.5,6.1-7.5,4.9l-45.9-10.9q-7.1-1.6-14.1-3c-3.3-.6-4.1-2.8-3.2-5.5,5.7-16.3,12.3-32.1,29.3-40.1a9.6,9.6,0,0,1,5.2-.9c7.3,1.5,14.7,2.8,21.7,5.1,2.9,1,5.5,4.3,7.2,7.2C779.2,889.9,785.3,898.3,783.2,909.3Z"/><path class="cls-10" d="M768.2,865.3l-13.6-3c.2-3.1.4-6,.6-8.9,1.4-18.4.2-36.6-4.7-54.4-3.7-13.5-11.6-23.8-23.1-31.4s-26.2-12.8-40.7-15.7l-5.1-1.1c.7-3.6,1.4-7,2.2-11.4,8.6,1.8,17.1,3.2,25.3,5.6,17.4,4.9,33,13.2,44.3,28,8.1,10.8,11.4,23.5,13.7,36.5C770.4,827.8,770.4,846.2,768.2,865.3Z"/><path class="cls-11" d="M791.7,914a188.7,188.7,0,0,1,33.9,33.5c8.9,11.6,11.9,25,13.1,39.1,2.1,25.9,4.6,51.7,6.5,77.6,1,14-2,27.2-10.7,38.6s-18.6,14.5-31.5,15.2c0-1.2-.2-2.1-.1-3s.1-2,.2-3.4c2.4-.4,4.8-.6,7.2-1.1,14.8-3.2,25.6-14.8,27.2-31.8,1.2-11.9.8-24-.1-35.9-1.7-21.3-4.6-42.6-6.4-64-1.2-13.7-7.6-24.7-16.4-34.4a213.8,213.8,0,0,0-19.3-18.8C791.5,922.3,790,919.3,791.7,914Z"/><path class="cls-12" d="M707.1,895c-.8,5.4-3.6,7.8-8.6,9-13.8,3.3-27.3,7.8-38.9,16.1-4.7,3.3-9.4,7.3-12.3,12.1-16,25.7-31.8,51.5-46.8,77.7a64,64,0,0,0-7.4,23.5c-1.8,15.2,5.1,26.7,18.7,34.1l-2.4,5.6c-15-6.4-24-21.6-23.1-38.6a59.2,59.2,0,0,1,8.2-27.9c15.7-26.3,31.4-52.5,47.5-78.5A41.1,41.1,0,0,1,652.5,917C668.7,904.9,687.6,899.5,707.1,895Z"/><path class="cls-13" d="M765.6,940.1v13.2H666.2V940.1Z"/><path class="cls-14" d="M428.6,1059.2c19.2,2.8,34.4,20.7,35,41s-14.2,38.8-35.5,43.2c-19.4,4.1-39.9-7.3-47.5-26.3a42.6,42.6,0,0,1,16.8-52.1c1.9,3.3,1,5.4-1.9,7.9a37.4,37.4,0,0,0-8.8,45c7.3,14.8,24.1,23.5,39.7,20.5,17.3-3.3,30-16.5,31.5-32.8,1.6-18.3-7.7-33.6-24.4-39.8C430.4,1064.7,427.4,1063.9,428.6,1059.2Z"/><path class="cls-8" d="M658.4,931.3c12.6-10.7,27.7-15.2,43.6-19.9-.6,9.9,6.1,11.9,13.5,13.4a179.6,179.6,0,0,1,23.9,6.5Z"/><path class="cls-10" d="M433,1090.6a16.1,16.1,0,0,1,1.6,19.5,16.7,16.7,0,0,1-18.7,7,16.9,16.9,0,0,1-12.2-16.4c.1-2.9.8-4.5,4.2-4.7,6.1-.5,12.3-1.2,18.3-2.3C428.5,1093.3,430.6,1091.7,433,1090.6Z"/><path class="cls-9" d="M400.3,1082.1c-.9,2.7-1.5,5.6-2.8,8.1-5,9.9-2.7,19.1,3.5,27.1s16.2,10.4,26.2,8.2,16.3-9.9,18.2-19.8-1.6-19-10.4-25.2a16.4,16.4,0,0,1-4.4-5.3c9.4.9,17.9,12.1,19.1,23.8s-7.2,25.1-19.8,29.8-25.6-.5-33-10.4S389.5,1090.8,400.3,1082.1Z"/><path class="cls-9" d="M644.2,1073.3l-6.3,16.8c-6.3-3.8-12.4-7.3-18.4-11-3.2-2.1-1.2-5-.1-7.1a5.2,5.2,0,0,1,4.3-2.1C630.4,1070.8,637,1072.1,644.2,1073.3Z"/><path class="cls-9" d="M770,1120.3c.4-6.5.8-11.7,1.2-17.8l10.2,2.8,9,2.7c2.2.7,4.8.9,4.3,4.3s-.7,5.8-4.3,6.2C783.8,1119.2,777.1,1119.7,770,1120.3Z"/><path class="cls-15" d="M663.8,735.1l9.7,2.6c-1.5,2.1-2.6,3.8-4.1,5.8Z"/><path class="cls-2" d="M223.4,1233.3c-.1-.6-.3-1.2-.4-1.8l.8.5a1.7,1.7,0,0,0,.1.7Z"/><path class="cls-2" d="M773.4,797.3l-.3-1.1h1.1Z"/><path class="cls-16" d="M904,1233.2l-.7-.7.8.6Z"/><path class="cls-16" d="M223.9,1232.7a1.7,1.7,0,0,1-.1-.7l.4.5Z"/></svg>