<svg id="Layer_1" data-name="Layer 1" xmlns="http://www.w3.org/2000/svg" viewBox="0 0 1042.47 947.74"><defs><style>.cls-1{fill:#11578f;}.cls-2{fill:#282828;}.cls-3{fill:#12568f;}.cls-4{fill:#e8e3e0;}.cls-5{fill:#6e6e6e;}.cls-6{fill:#c2c0be;}.cls-7{fill:#d4d0cd;}.cls-8{fill:#99a2a2;}.cls-9{fill:#232323;}.cls-10{fill:#24447b;}.cls-11{fill:#424242;}.cls-12{fill:#2a497e;}.cls-13{fill:#5f5f5f;}.cls-14{fill:#103951;}.cls-15{fill:#9bb4c1;}.cls-16{fill:#10548a;}.cls-17{fill:#f0f2f6;}.cls-18{fill:#e0dad4;}.cls-19{fill:#1b5d94;}.cls-20{fill:#206197;}.cls-21{fill:#21427e;}.cls-22{fill:#234a84;}.cls-23{fill:#1a3247;}.cls-24{fill:#f3efed;}.cls-25{fill:#20475e;}.cls-26{fill:#ececed;}.cls-27{fill:#f0ddcd;}.cls-28{fill:#3b6f9b;}.cls-29{fill:#6287a7;}</style></defs><path class="cls-1" d="M423.53,772.9l-23.95-3.36c-.05-.54,0-1.54-.17-1.58-7.15-1.43-14.32-2.77-21.49-4.13l-23.36-8.11c-5.58-4.83-11.44-9.11-19.16-9.72l.05,0c-.32-4-4-4.17-6.43-5.92-5-3.64-9.74-7.8-14.66-11.64-.42-.32-1.46.15-2.22.25a.65.65,0,0,1-.44-.44c.05-2.61.44-5-3.09-6.29-1.68-.58-3.43-2.92-3.82-4.75-.74-3.49-2.78-3.59-5.43-3.25l.07,0c1.3-4.75-2.89-5.88-5.36-8.14q-1.71-7.15-3.43-14.32c-.39-7.18-1.13-14.37-1.11-21.55,0-15.89.13-31.78.86-47.65.43-9.55,2.11-19,3.23-28.56q3-13.1,5.92-26.18c.09-.62.17-1.25.26-1.87,1.22-2.21,2.93-4.29,3.56-6.66,2-7.34,3.52-14.79,5.22-22.15l-.91-.05q6-16.59,12-33.16c1-1.18,2.27-2.21,2.88-3.55q3.69-8.12,7-16.41c2.09-5.17,4-10.44,5.92-15.66,6.16-7.78,11.75-15.73,19.75-22.22,12.57-10.19,26.2-18.2,40.55-25.27,9.13-4.5,18.38-8.74,27.57-13.1l8.21,1.12,6-.08-.09,1.3c-.29,1.41-.91,2.84-.83,4.23.57,10.24,1.29,20.48,1.95,30.72,2.18,9.07,3.57,18.23,8.45,26.64,2.57,4.45,2.83,10.42,3.44,15.77.56,4.89-1.84,6.88-6.76,7.14-1.06,2.32-2,4.45-3,6.57l0,0-4.68.52a22.45,22.45,0,0,1,.63,4.25c-.27,4.44-.8,8.85-1.07,13.29-.21,3.5,4.48,8.92,8.16,9.68l0-.06,3,2.08v-.07l2.82,1.29c6.67,1.66,13.08,1.65,19-2.61,9-6.49,12-20.07,2-31L467.45,496l0,.07L463,492.1c-2.09-9.81-3.69-19.41-6.27-28.75-2.12-7.7-5.4-15.08-8.16-22.61,6.17-2.75,13.43-4.29,18.22-8.58,5.4-4.85,10.56-4.19,17-3.91-.33,2.22-.26,4.26-1,6-1.95,4.83-.18,8.32,2.88,12.09,7.22,8.88,14.06,18.07,20.94,27.22,2.79,3.71,5.26,7.65,7.87,11.48l3,5.84c-.4,1-1.36,2.8-1.11,3,5.84,4.5,5,11.95,8,17.66q1.62,3.15,3.26,6.28c.66,2,1.33,4,2,6s1.36,4,2,6c1,3.81,1.69,7.7,3,11.41,2.49,7.27,5.29,14.44,8,21.65v110.7c-4.38.5-8,.67-11.57,1.4-2.53.53-4.9,1.8-7.34,2.73-4,1.08-8,2.36-12,3.18-7.61,1.53-14.42,4.51-19.64,10.37a6.63,6.63,0,0,0-1.47,4.53c.51,5.69,1.4,11.34,2.14,17,.66,5,1.17,9.92,2,14.83q2.34,14,5,27.89a21,21,0,0,0,1.91,4.38l-.27,1.83c-1.84,3.38-3.53,6.86-5.6,10.09-1,1.55-2.71,2.64-4.1,3.94a32.42,32.42,0,0,0-5.2-.86c-11.26-.09-22.53-.05-33.79-.06-6.66-.65-13.31-1.4-20-1.92C429.63,772.64,426.57,772.87,423.53,772.9Zm-94.94-203,.45.23-.43-.25-1.07-.75-.26.38Zm141,152c.41.5.81,1,1.21,1.51l.33-.32-1.52-1.2-1.24-1.57-.77,1.57-3-3,5.25-7.4c-5.25,1.07-6.55,2.9-5.26,7.4-5.22-.42-8,2.56-9.77,6.47l9.48,9.79c0-2.1-.45-4.41.07-4.65,4-1.91,3.08-5.41,3.22-8.6Zm-150-154L317,569.54l2.64,1.32.42.4-.4-.43v-3l1-1,4.56-.48-.66-1.94-3.92,2.4Zm161,137c-1.94-3.68-3-3.49-6,1-2.1,1.68-3.76,3.35,0,5-.49,1.16-1.29,2.3-1.37,3.48a7.33,7.33,0,0,0,1.1,3.21c.09.19.91,0,1.66,0,.08-1.17.16-2.33.18-2.64l8.32-3.67.63.43-4.95,4.53c3,1.47,5,.33,6-2.62,1.44-4.23-.66-6.56-4.54-7.77Zm-162-123c3.09-2,3.18-4-.05-6l-.95-1c-3.16-3.65-5.26-2.73-9.33,4.23l3.33,2.72h0c1.79,2,3.59,3.95,5,5.48l2-5.48ZM391.91,596q-1.08,3-2.18,6.09l-3.45,11.86c-.51.35-1.4.64-1.48,1.08-1.11,6.29-2.12,12.61-3.15,18.92v16.84l1.38.2,3.66-9.1c1.18-1.08,2.84-1.94,3.45-3.27,1.72-3.79,3-7.78,4.47-11.69.39-3.37.86-6.74,1.17-10.13.93-10,1.92-20.11,2.54-30.19.08-1.3-1.88-2.73-3.62-5.09-1.2,6.07-2.05,10.31-2.89,14.56ZM328.6,565.84h0c3.46,4.59,5.91.47,9.38-.36-1.37,1.45-2.75,2.89-5.11,5.35,2.89-1.33,6-2,6.21-3a13.42,13.42,0,0,0-1.46-7.26c-1-2-2.85-3.66-4.33-5.47l1.43-1.2c1.55,1.39,2.92,3.12,4.71,4,1.17.59,3.05.25,4.39-.26.39-.15.46-2.48,0-3.44a65.69,65.69,0,0,0-4-6.19l-7.68,1.89,1.09.54c-1.46,2.16-2.52,4.8-4.45,6.37C324.92,559.91,324.65,562.41,328.6,565.84Zm24-23c1.17,0,2.33,0,3.5,0,3.72.15,5.74-1.52,5.47-5.33s-2.44-5.72-6.2-5.65-5.22,2.34-5.32,5.79c0,.9.1,1.81.17,3a22.71,22.71,0,0,1-3.27.2c-3.16-.3-5.41,1.68-4.94,4.17a10.35,10.35,0,0,0,4.77,6.49c1.14.61,4.45-1.74,6-3.47.83-1-.05-3.39-.15-5.16Zm136,10,2.65-1.3-2.65-1.7c-.17-1.19-.35-2.39-.58-4l8,4.13,4.45-9.18L504,539.3l-4.72-5.06,1-1.54c1.55,2.37,3.14,4.22,4.82.82.58,1.67,1,3,1.81,5.25,3.2-4.36.9-6.79-1.15-8.63-1.28-1.14-4.73-2-5.29-1.4-1.89,2.16-2.92,5.08-4.19,7.54-4.93,3.06-10.88,5.61-15.26,9.8-4.19,4-6.74,9.72-10.5,15.43l-3.88,2.33a15.76,15.76,0,0,0-1.83,2.84,36,36,0,0,0-1.09,4.63l3.22,6.74c.51-2,.84-3.34,1.18-4.67l3.14.84c-.12-2.09-1.1-3.22-1.8-4.51-1-1.9-1.88-3.9-2.81-5.86l8.2,3a31.28,31.28,0,0,1,5.26-1.38c1.55-.16,4.11,1,4.59.39a11.84,11.84,0,0,0,1.76-5.7c.15-1.38-.51-2.86-.81-4.3h0Zm-24.55,32.09,1-4.73-7.85-5.05C456.27,578.77,456.79,579.64,464.05,584.93ZM479.84,696c-.54.56-1.07,1.13-1.6,1.69l9.86,8.49,1.15-1.28ZM323.32,575.25c-.12.28-.4.62-.32.82s.52.26.8.38c.12-.28.4-.62.32-.82S323.6,575.37,323.32,575.25Zm136-5c-.12.28-.39.62-.32.82s.52.26.8.38c.12-.28.4-.62.32-.81S459.61,570.34,459.32,570.22Z"/><path class="cls-2" d="M437.56,408.6l-6,.08-18-6.81,0,0c.11-1.42.23-2.83.35-4.41l-7.79-2.89-.25-.3c-.45-2.41-.56-5-1.46-7.2-.75-1.86-3-3.16-3.59-5-2.6-8.37-4.8-16.86-7.24-25.28a13.12,13.12,0,0,0-1.86-3c0-.67-.07-1.34-.1-2,1.08-2.21,2.41-4.46-.93-6,0-.66-.07-1.33-.1-2,1.1-3.46,2.72-7-.89-10l-.09-4c1.69-5.32,2.14-10.64,0-16l.07-3c3.59-3.06,2-6.55.85-10l.15-3c3.32-1.55,2-3.79.9-6,0-.66.07-1.33.1-2,1.82-3.9,4.07-7.66,5.35-11.73,1.78-5.65,2.56-11.62,4.3-17.28,1-3.36,3.09-6.41,5.17-10.55.07-.61.23-2.52.57-4.4.39-2.06.95-4.09,1.43-6.14l0,0c4.11-.87,7.09-3.17,7.69-7.41.65-4.61,1.7-8.35,7.77-8l-1.74-.74c.15-2.63.24-4.28.33-5.93l1.78-2a26.54,26.54,0,0,0,4.76-2.22c2.07-1.49,3.72-3.58,5.84-5,4.14-2.75,7.09-7,12.82-7.84,3.85-.54,7.37-3.51,11-5.44,1.31-.7,2.55-1.54,3.82-2.31l2-.18,18.05,0,2,.16c.12.77.23,1.55.19,1.25,5.44,0,10.46-.43,15.38.09,9.91,1,15.83,8.55,22.15,15,3.37,3.44,6,7.72,8.44,11.92,2.24,3.84,10.26,3.69,7.53,10.89,0,.1.12.33.24.42,3.05,2.43,6.12,4.85,9.18,7.27l0-.06a13.28,13.28,0,0,1-.26,3c-1.12,3.53-2,6.61,3.12,8,1.52.4,2.78,2.79,3.6,4.53,1.08,2.31.85,6,2.52,7.14,5.6,3.83,5.66,10.32,7.71,15.48,3.71,9.3,5.69,19.31,8,29.11s.52,19.62.83,29.42c.24,7.94-2.09,16-3.31,24-.65,4.22-1.38,8.41-2.07,12.62l-1.29,3.9c-1,.43-2.64.57-3.07,1.34-2.26,4.05-4.21,8.27-6.2,12.28-5-.78-10.92,3.14-12.59,8.25l-3.83-1.65c1.56-5.47,2.71-10.36,4.37-15.08,1.47-4.2.86-6-3.43-6-3.29,0-4.57-1.16-4.39-4.28h3.81c1.69-3.3,3.12-5.66,4.13-8.18,1.26-3.15,2.18-6.44,3.25-9.67h0c1-1.32,2.47-2.49,3.08-4,5.49-13.66,4.62-27.41.82-41.37-1.42-5.24-1.4-10.87-1.75-13.85-3.18-6.13-5.4-10.36-7.56-14.62-.87-1.72-.22-4.73-3.67-4.12l0,.06-.66-1.07c-.1-.33-.2-.65-.31-1,.76-3.28-.23-5.67-3.52-6.89l-.47-1.09-.73-1.05-7.28-12-1.23-8.53c-1.79-1.14-3.77-1.73-4.59-3-2.44-3.92-6.36-4.54-10.24-5.47l-1.91-1.28c-.83-1.25-1.41-2.8-2.53-3.67a16.42,16.42,0,0,0-5.6-3.06c-4.61-1.24-9.32-2.79-14-2.84-4.84-.05-9.69,1.63-14.56,2.36a66.77,66.77,0,0,1-6.94.33l1.3,6.6-.23.21c-8-1.79-8.51-1.41-8.42,6.43,0,.33,0,.66,0,1l0,0c-.66,0-1.31-.05-2-.05-6.31,0-6.24,0-5.58,6.32a24.59,24.59,0,0,1-.45,4.8l0-.05c-4.67,1.14-5.58,5.66-6.76,9a125.61,125.61,0,0,0-5,20.59c-.7,4-.24,8.23-.31,12.36l-.18,3c-3.46,2.71-2,5.88-.85,9l-.12,2c-.91.65-2.65,1.33-2.62,1.92.41,8.27.92,16.54,1.7,24.79.41,4.4,1.67,8.73,2,13.13.61,7.18,4.05,13.23,7.29,19.33.86,1.64,3.14,2.53,4.77,3.77l0,0,.93,11.1c-1.34,3.48-2.68,7-3.86,10l9.94,7c-.05.3-.09.59-.11.88L449.41,405l-3.83,1.09Z"/><path class="cls-1" d="M667.46,525.74c2.15-2.51,2.85-1.26,3.09,1.19l1,6.94c-.54,2.14-1.09,4.28-1.66,6.49a3.88,3.88,0,0,1-1.34.39c-3.19-.18-6.14.23-6.75,4s1.73,5.65,4.78,7.07a28.21,28.21,0,0,1,3.23,2l-9.39,12.88-6.54-12.24c2.47.77,3.87,2.46,5.64,3.46,1.05.59,2.7.1,4.08.09-.06-1.3.23-2.75-.26-3.86a70.28,70.28,0,0,0-3.54-6.38l-7.72,2.26c1.36,2.95-.07,5.09-3.29,6.88-4.22,2.34-4.15,5.44-.21,8.85,3.51,3,5.51,2.49,9.31-2.63,1.4,4.64-3.25,4.46-5.17,7.2l5.14-.51a11.65,11.65,0,0,1-.9,1.76q-24.71,32.72-49.43,65.4l-1.91-.49-6.12-3.88c-3.39-2.3-6.58-5-10.23-6.74-2-1-5.29-1.21-7-.16-2.14,1.3-3.27,4.27-4.85,6.55-1.76-.8-3.72-2.46-5.61-2.38-2.65.13-6.34.76-7.64,2.57-2.84,4,1.35,15.43,6,18.7l.14.32-2.75.3-9-1.43c0-19.16.06-38.42-.09-57.67,0-2.29-1.24-4.57-1.91-6.86.85-2.75-.47-4.86-1.4-7.41-3-8-5.08-16.32-7.37-24.56-.44-1.59-.17-3.38-.23-5.08l.41.23-.41-.23-3.58-3-.42-2,.89-6.26q2.14-4.9,4.3-9.82l30.44-44.13c-1.89-2.74-4.74-5.9-6.49-9.58-6.83-14.34-13.31-28.85-19.92-43.3l-.4-1.9-.93-3.05q-1.93-10.69-3.88-21.4l4.08,5.07,1,1.31-.06-.09a13.34,13.34,0,0,0,7.88,10.17c2.54,4,.11,7.89-.35,11.85-.5,4.4-2.54,9.15,1.71,13l-.09-.08c.5,1.05,1,2.11,1.49,3.16l2.31,4,1.16,2.11,12.81,17-2.22.67,1,1.18h2.3c-.25,3,.84,4.85,4.06,5h-.06l5.07,6h0l14.07,15-.07,0,1,1v-.09l2.94,2.15,0,0,2.31,2.05,13.42,10.33a43.8,43.8,0,0,0,5.66,4.6c1,.59,2.71,0,4.09,0-.24-1.51,0-3.48-.82-4.43-1.6-1.77-3.85-3-5.84-4.37-16.39-13.89-29.74-30.42-41.86-48-2.6-3.79-5.47-7.38-8.22-11.07l-2-2.88c0-1,.48-2.19.06-2.89-1.49-2.5-3.53-4.69-4.84-7.26-.74-1.45-1.21-3.92-.46-5s3.23-1.83,4.85-1.69a47.62,47.62,0,0,1,9.62,2.09c1.44.44,2.61,1.72,3.93,2.65L585,441.48l6-3.15c1.45,1.61,4.58,3.5,4.51,5.28-.18,5,1.75,3.48,4.15,2.05l3.83,5.32c3.09,5.33,6.16,10.67,9.27,16,11.26,19.26,22.31,38.65,33.9,57.71C652.52,534.24,660.23,534.33,667.46,525.74Zm-27.87,45.12.42.4-.4-.43v-3l1-1,4.56-.48-.66-1.94-3.92,2.4-1,1L637,569.54Zm-1,11c3.1-2,3.18-4-.05-6l-.95-1c-3.16-3.65-5.26-2.73-9.33,4.23l3.33,2.72h0l5,4,1.06.75.26-.38-1.3-.39,2-4Zm5.64-6.27c-.28-.12-.62-.4-.83-.32a.86.86,0,0,0-.33.78.83.83,0,0,0,.78.34C644.06,576.3,644.12,575.86,644.24,575.58Zm3.34-6.5c-.11.07-.26.12-.29.22s.1.2.15.3l.47-.36Z"/><path class="cls-3" d="M702.45,649.81v15.07c-.61,1.09-1.69,2.15-1.76,3.28-.45,7.59-.7,15.2-1,22.8l.09-.09c-.74,1.76-1.35,3.58-2.24,5.26-2.08,3.9-4.3,7.73-6.46,11.59-.94,1.15-1.19,2.81-1.66,4.4s-1.15,3-1.74,4.42c-4.54,4.65-9,9.41-13.67,13.89-1.71,1.62-4,2.62-6.14,3.81-4.49,2.53-9.11,4.83-13.46,7.58-1.33.85-1.79,3-2.91,4.29-1.47,1.73-3.2,3.24-4.81,4.85L644.74,753l0,0c-1.91.39-4,.44-5.7,1.23-7,3.19-14.15,4.3-21.57,2.51-3.46-.83-6.73-2.47-10.09-3.75l-4.83-6.14c.27-.72.88-1.5.76-2.14-1.4-7.42-3.27-14.78-4.28-22.25-.94-6.94-1-14-1.47-21.61h6c2.81,0,5.64.2,8.44,0,6.83-.52,13.65-1.21,20.47-1.83,6.67-3.76,14.32-6.29,18-13.91a50.6,50.6,0,0,0,1.92-5.6,2.28,2.28,0,0,0,.33.36.84.84,0,0,0,.43.12,33.36,33.36,0,0,0,1.49-3.42c3.49-10.34-2.09-19.38-4.19-28.93l1.23-2.53c.55-.62,1.15-1.2,1.65-1.86q19.11-25.26,38.19-50.55a22.26,22.26,0,0,1,2.07,4.18c4.19,16.39,7,33,7.11,50C700.69,647.82,701.84,648.82,702.45,649.81Z"/><path class="cls-4" d="M501.31,761.68l.27-1.83c-1.5-9.15-2.85-18.33-4.55-27.45-1.22-6.59-2.9-13.1-4.38-19.65-.74-5.66-1.63-11.31-2.14-17a6.63,6.63,0,0,1,1.47-4.53c5.22-5.86,12-8.84,19.64-10.37,4.07-.82,8-2.1,12-3.18l20.84-2.93,22.07,1.1a35.46,35.46,0,0,1,21.18,6.76c5.16,3.65,4.87,8.23-.89,10.91a18.81,18.81,0,0,1-6.22,1.29c-2.3.21-4.63,0-6.94.12a9.16,9.16,0,0,0-.25,1.83c3.2,3,7.07,5.53,9.45,9.07,3.59,5.35,1.29,9-5.11,9-2.76,0-5.53-.54-9.34-.94,2,1.31,3.29,2,4.42,2.88a29,29,0,0,1,3.74,3.25c4.29,4.63,3.42,7.29-2.8,8.56a25.58,25.58,0,0,1-5,.27c-4.06,0-8.11,0-13.23,0,5.2,1.45,9.34,2.45,13.36,3.78,3.26,1.07,5.38,3.41,5.1,7s-3,5.3-6.34,6c-2.09.45-4.2.83-7,1.37,6,3.37,6.26,5.27,1.82,9.29-1,.88-2,1.68-3,2.52-9,1.74-18,3.84-27.13,5.1-10,1.37-20.21,4.48-29.69-2.08C502.42,761.61,501.81,761.73,501.31,761.68Z"/><path class="cls-5" d="M691.51,592.68q-19.1,25.27-38.19,50.55c-.5.66-1.1,1.24-1.65,1.86-.43-3.69-1.48-7.43-1.15-11,.56-6.16,2-12.23,3-18.33,0-.66-.06-1.32,0-2,.19-8.41-3.81-10.69-11.72-7.58-5.25,2.07-4.91,7.31-7.64,10.73-.86,1.17-2.33,2.26-2.48,3.51-.57,4.82-.72,9.69-1,14.54l.06-.05-2,1.52-.9.48-2.1,2.21-1.56,1.84L621.76,644l.09-.07-1,1.14.27,0,0,.28-7.79-3.08-.05-.12c.62-4.53-4.06-3.17-5.72-5.15q24.72-32.7,49.43-65.4a11.65,11.65,0,0,0,.9-1.76l2.56-3.12,9.39-12.88,5.93-7.83,1-1.24c5.65-7.38,11.2-14.84,17-22.07a15.91,15.91,0,0,1,5.53-3.85c5.95-2.89,12-5.56,18-8.31a11.77,11.77,0,0,0,3-.27c7.73-2.78,15.43-5.64,23.14-8.48,5.7-1.84,11.39-3.69,17.09-5.51.23-.07.55.12,2.09.5l-13.1,17c-1.62.74-3.64,1.09-4.76,2.29a69.51,69.51,0,0,0-5.46,7.53l-.66-.56q-1,4.15-2,8.3c-6.3,8.64-12.45,17.39-19,25.88-5.13,6.7-10.7,13.07-16.07,19.58-3.63.73-10,10-9.9,14.36Z"/><path class="cls-3" d="M637.25,449.76c3,2.71,6.68,4.95,8.67,8.24,3.19,5.31,5.33,11.26,7.7,17,.71,1.74.71,3.76,1,5.65q3.15,8.94,6.29,17.89c1.22,3.45,2.57,6.86,3.62,10.36.88,2.92,1,5.71-1.62,8.19-1,.94-1,3-1.45,4.52a12.91,12.91,0,0,0-1,1.09c-4.87,6.47-6.48,6.32-10.06-.93-.29-.6-.53-1.22-.85-1.8q-19.44-35.1-38.89-70.17l0-1-.65-1.45.07-.23L604.31,439l.05.09-2.25-2.66-.05-.18v-3l4.6.63,18.09,7.89-.09-.09C628.26,445.29,632.13,448.49,637.25,449.76Z"/><path class="cls-6" d="M559.6,758.84c1-.84,2-1.64,3-2.52,4.44-4,4.22-5.92-1.82-9.29,2.78-.54,4.89-.92,7-1.37,3.33-.72,6-2.3,6.34-6s-1.84-6-5.1-7c-4-1.33-8.16-2.33-13.36-3.78,5.12,0,9.17,0,13.23,0a25.58,25.58,0,0,0,5-.27c6.22-1.27,7.09-3.93,2.8-8.56a29,29,0,0,0-3.74-3.25c-1.13-.86-2.38-1.57-4.42-2.88,3.81.4,6.58.94,9.34.94,6.4,0,8.7-3.62,5.11-9-2.38-3.54-6.25-6.08-9.45-9.07L595.92,699c.24,4.46.16,9,.8,13.38,1.65,11.53.13,23.62,5.87,34.45l4.83,6.14,10.43,5.65Z"/><path class="cls-7" d="M610.74,448.79l0,1L603.53,451l-3.83-5.32-13.89-12.35c-2.82-3.2-13.2-5.76-16.74-4-.5.25-.6,1.32-.88,2l-.09.28c-.77.21-2.05.21-2.24.66-1.66,4,1.55,11.57,5.61,13.57a1.19,1.19,0,0,1,.2.8l2,5.08c-1.3.77-2.56,1.62-3.91,2.28a19,19,0,0,1-2.92.89l-1.16-2.11c0-1.27.33-2.75-.19-3.78-3.71-7.51-4-14.79.08-22.35,1.07-2,.15-4.64-3.15-4.71l-.83-.9-.94-1.19-.19-.18.07-.25-2.08-2.5-5.72-6.2.06.09-1-1.31-4.07-5.07-1-1.39-.17-1.79,4.29-4c1,2,1.37,3.51,2.36,4.41.55.5,2.09-.1,3.19-.2,5.7,10.07,13.3,17.65,24.91,20.88,4.67,1.3,8.92,4.11,13.37,6.23l7.44,7.67.05.18c.76.88,1.51,1.77,2.25,2.66l-.05-.09,5.85,8.11-.07.22Z"/><path class="cls-8" d="M603.53,451l7.16-1.15q19.44,35.09,38.89,70.17c.32.58.56,1.2.85,1.8,3.58,7.25,5.19,7.4,10.06.93a12.91,12.91,0,0,1,1-1.09c-.15,4.47,2.81,4.42,6,4.1-7.23,8.59-14.94,8.5-20.76-1.07-11.59-19.06-22.64-38.45-33.9-57.71C609.69,461.65,606.62,456.31,603.53,451Z"/><path class="cls-9" d="M556.34,401.47c-1.1.1-2.64.7-3.19.2-1-.9-1.38-2.45-2.36-4.41l-4.29,4-6,1.18c-.45-2.34-1.56-4.79-1.21-7,.7-4.49,2.18-8.85,3.48-13.81l-8.15,4.75,2.89-7.92-1.32-.24-9.3,7.93,6.69.63-17.91,6.11,21.75-21.19c-.18,3.12,1.1,4.26,4.39,4.28,4.29,0,4.9,1.82,3.43,6-1.66,4.72-2.81,9.61-4.37,15.08l3.83,1.65c1.67-5.11,7.55-9,12.59-8.25,2-4,3.94-8.23,6.2-12.28.43-.77,2-.91,3.07-1.34Z"/><path class="cls-9" d="M567.84,372.94c.69-4.21,1.42-8.4,2.07-12.62,1.22-8,3.55-16,3.31-24-.31-9.8,1.48-19.73-.83-29.42s-4.31-19.81-8-29.11c-2-5.16-2.11-11.65-7.71-15.48-1.67-1.15-1.44-4.83-2.52-7.14-.82-1.74-2.08-4.13-3.6-4.53-5.13-1.37-4.24-4.45-3.12-8a13.28,13.28,0,0,0,.26-3c11.51,19.39,21.61,39.31,25.45,61.91C577.26,325.89,576.36,349.67,567.84,372.94Z"/><path class="cls-9" d="M547.71,239.78c-3.06-2.42-6.13-4.84-9.18-7.27-.12-.09-.28-.32-.24-.42,2.73-7.2-5.29-7.05-7.53-10.89-2.45-4.2-5.07-8.48-8.44-11.92-6.32-6.44-12.24-13.95-22.15-15-4.92-.52-9.94-.09-15.38-.09,0,.3-.07-.48-.19-1.25,15.13-3.87,27.3,2.11,38.09,11.86S541.58,226.54,547.71,239.78Z"/><path class="cls-10" d="M293.62,593.84c-1.12,9.52-2.8,19-3.23,28.56-.73,15.87-.82,31.76-.86,47.65,0,7.18.72,14.37,1.11,21.55-1-7.18-2.55-14.33-2.95-21.55a310.65,310.65,0,0,1,5.09-76.2Z"/><path class="cls-9" d="M408.53,239.74c-.48,2-1,4.08-1.43,6.14-.34,1.88-.5,3.79-.57,4.4-2.08,4.14-4.14,7.19-5.17,10.55-1.74,5.66-2.52,11.63-4.3,17.28-1.28,4.07-3.53,7.83-5.35,11.73C394.84,272.31,400,255.47,408.53,239.74Z"/><path class="cls-11" d="M743.52,501.85c-7.71,2.84-15.41,5.7-23.14,8.48a11.77,11.77,0,0,1-3,.27c1.58-1.62,2.87-3.93,4.79-4.73,7.17-3,14.55-5.54,22.43-8.46C744.16,499.25,743.84,500.55,743.52,501.85Z"/><path class="cls-9" d="M462.6,193c-1.27.77-2.51,1.61-3.82,2.31-3.65,1.93-7.17,4.9-11,5.44-5.73.81-8.68,5.09-12.82,7.84-2.12,1.4-3.77,3.49-5.84,5a26.54,26.54,0,0,1-4.76,2.22C434.41,203.64,446.77,195.38,462.6,193Z"/><path class="cls-10" d="M691.51,592.68l.27-1.46,1.6-1.17c4.8,17.88,8.79,35.88,8.28,54.58a28.24,28.24,0,0,0,.79,5.18c-.61-1-1.76-2-1.76-3-.1-17-2.92-33.57-7.11-50A22.26,22.26,0,0,0,691.51,592.68Z"/><path class="cls-9" d="M391.73,353.84a13.12,13.12,0,0,1,1.86,3c2.44,8.42,4.64,16.91,7.24,25.28.57,1.86,2.84,3.16,3.59,5,.9,2.23,1,4.79,1.46,7.2-8.45-10-10.38-22.5-13.28-34.62C392.15,357.76,392,355.79,391.73,353.84Z"/><path class="cls-9" d="M422.56,217.75c-.09,1.65-.18,3.3-.33,5.93l1.74.74c-6.07-.39-7.12,3.35-7.77,8-.6,4.24-3.58,6.54-7.69,7.41Z"/><path class="cls-10" d="M335.51,468.15c-2,5.22-3.83,10.49-5.92,15.66q-3.33,8.28-7,16.41c-.61,1.34-1.9,2.37-2.88,3.55,4.23-10.26,8.4-20.53,12.72-30.74A33.68,33.68,0,0,1,335.51,468.15Z"/><path class="cls-10" d="M307.67,536.93l.91.05c-1.7,7.36-3.25,14.81-5.22,22.15-.63,2.37-2.34,4.45-3.56,6.66Q303.73,551.36,307.67,536.93Z"/><path class="cls-12" d="M312.14,728.74c.76-.1,1.8-.57,2.22-.25,4.92,3.84,9.61,8,14.66,11.64,2.43,1.75,6.11,1.93,6.43,5.92Z"/><path class="cls-12" d="M617.85,758.63,607.42,753c3.36,1.28,6.63,2.92,10.09,3.75,7.42,1.79,14.62.68,21.57-2.51,1.72-.79,3.79-.84,5.7-1.23C636.56,758.46,627.43,759.61,617.85,758.63Z"/><path class="cls-13" d="M736.7,531.4q1-4.14,2-8.3l.66.56a69.51,69.51,0,0,1,5.46-7.53c1.12-1.2,3.14-1.55,4.76-2.29Z"/><path class="cls-12" d="M687.67,716.54c.59-1.47,1.29-2.91,1.74-4.42s.72-3.25,1.66-4.4c2.16-3.86,4.38-7.69,6.46-11.59.89-1.68,1.5-3.5,2.24-5.26C698.92,700.93,694,709.07,687.67,716.54Z"/><path class="cls-12" d="M423.53,772.9c3,0,6.1-.26,9.12,0,6.66.52,13.31,1.27,20,1.92,0,.31,0,.62,0,.93Z"/><path class="cls-12" d="M299.36,714c2.65-.34,4.69-.24,5.43,3.25.39,1.83,2.14,4.17,3.82,4.75,3.53,1.24,3.14,3.68,3.09,6.29Q305.53,721.16,299.36,714Z"/><path class="cls-12" d="M293.62,593.84h-.84c1.58-7.52,3.11-15.06,4.81-22.56.29-1.29,1.28-2.42,2-3.63Q296.58,580.76,293.62,593.84Z"/><path class="cls-13" d="M693.38,590.05l-1.6,1.17c-.14-4.34,6.27-13.63,9.9-14.36Q697.53,583.46,693.38,590.05Z"/><path class="cls-12" d="M335.4,746c7.72.61,13.58,4.89,19.16,9.72Z"/><path class="cls-12" d="M377.92,763.83c7.17,1.36,14.34,2.7,21.49,4.13.16,0,.12,1,.17,1.58Z"/><path class="cls-10" d="M452.6,775.72c0-.31,0-.62,0-.93,11.26,0,22.53,0,33.79.06a32.42,32.42,0,0,1,5.2.86Z"/><path class="cls-9" d="M413.55,401.87l18,6.81-8.21-1.12Z"/><path class="cls-10" d="M699.68,691c.31-7.6.56-15.21,1-22.8.07-1.13,1.15-2.19,1.76-3.28Q701.07,677.92,699.68,691Z"/><path class="cls-10" d="M676.81,544.83l-1,1.24c-.61-.59-1.58-1.09-1.77-1.79-.92-3.44-1.63-6.93-2.42-10.41l-1-6.94Z"/><path class="cls-9" d="M482.62,192.79l-18.05,0Z"/><path class="cls-9" d="M389.64,313.86c2.12,5.33,1.67,10.65,0,16Q389.64,321.85,389.64,313.86Z"/><path class="cls-12" d="M602.06,436.25l-7.44-7.67,13,5.23-1,.05-4.6-.63Z"/><path class="cls-10" d="M606.66,433.86l1-.05,17.08,7.94Z"/><path class="cls-12" d="M661,498.57q-3.15-8.94-6.29-17.89Q657.81,489.62,661,498.57Z"/><path class="cls-9" d="M406.13,394.59l7.79,2.89c-.12,1.58-.24,3-.35,4.41Z"/><path class="cls-10" d="M637.25,449.76c-5.12-1.27-9-4.47-12.59-8.1Z"/><path class="cls-9" d="M389.71,333.84c3.61,3,2,6.54.89,10C390.3,340.51,390,337.18,389.71,333.84Z"/><path class="cls-9" d="M390.56,300.83c1.18,3.46,2.74,6.95-.85,10C390,307.5,390.28,304.16,390.56,300.83Z"/><path class="cls-12" d="M294.07,705.92c2.47,2.26,6.66,3.39,5.36,8.14Q296.75,710,294.07,705.92Z"/><path class="cls-9" d="M391.61,291.84c1.11,2.21,2.42,4.45-.9,6Z"/><path class="cls-9" d="M390.7,345.84c3.34,1.53,2,3.78.93,6Z"/><path class="cls-12" d="M644.74,753l1.94-2.07Z"/><path class="cls-14" d="M456.68,399.88l-9.94-7c1.18-3.05,2.52-6.54,3.86-10l1.08-4.95,15,13L464.59,397l1,.28,3.07-4.44,3.2.84-.07-.07,1,1.16-.06-.07c.92,1.37,1.84,2.73,2.75,4.1q2.6,3.15,5.18,6.32l3.24,4.57-.1-.09.9,1.22,0,0,1.19,2-.07-.09,3.06,5.08-.06-.06,5.05,9.07-.06-.08,2.1,4.05-.07-.08c.66,4.3,1.11,8.7,5.45,11.2l2.4,6a17.87,17.87,0,0,0,.49,3.9c3.27,9.37,6.71,18.69,9.93,28.09.55,1.59.32,3.45.44,5.19-2.61-3.83-5.08-7.77-7.87-11.48-6.88-9.15-13.72-18.34-20.94-27.22-3.06-3.77-4.83-7.26-2.88-12.09.7-1.74.63-3.78,1-6-6.41-.28-11.57-.94-17,3.91-4.79,4.29-12.05,5.83-18.22,8.58l-1.29.09c-.32-1.48-.63-3-.95-4.45l1.08-13.64q1-8.88,2-17.75l7.16-4.23c-1.1,4.84-.24,8.77,4.88,10.7,1.33-.71,2.68-1.3,3.89-2.11,3-2,3.05-4.88.27-7.52-.33-.33-.67-.66-1-1Zm14.17,3.59c.12-.28.4-.62.32-.82s-.52-.26-.8-.38c-.11.28-.39.62-.31.82S470.57,403.35,470.85,403.47Zm-6.5,10.35-.21-.31-.25.55c.1,0,.24.11.3.07S464.3,413.93,464.35,413.82Z"/><path class="cls-15" d="M470.54,498.35c10,10.9,7,24.48-2,31-5.89,4.26-12.3,4.27-19,2.61l-2.82-1.29v.07l-3-2.08v.06c-7.83-9-9.35-18.11-3-27.74l0,0,13.08-8.17,5.51.62c.17-2.37.34-4.6.5-6.84.33,2.23.65,4.46,1,6.79l6.69,2.66,0-.07Zm-13.4,4.34c-6.55-.05-10.63,3.89-10.71,10.37s4,10.79,10.29,10.82,10.82-4.36,10.91-10.45A10.16,10.16,0,0,0,457.14,502.69Z"/><path class="cls-16" d="M466.59,563.84l3.88-2.33c3.76-5.71,6.31-11.42,10.5-15.43,4.38-4.19,10.33-6.74,15.26-9.8,1.27-2.46,2.3-5.38,4.19-7.54.56-.65,4,.26,5.29,1.4,2.05,1.84,4.35,4.27,1.15,8.63-.77-2.23-1.23-3.58-1.81-5.25-1.68,3.4-3.27,1.55-4.82-.82l-1,1.54L504,539.3l-3.56,1.52L496,550l-8-4.13c.23,1.58.41,2.78.58,4h0l-4.32-1.66-.77,1.15,5.1,3.5h0l-3,3-2.13-1.8-.45,1.28,2.58.52c.3,1.44,1,2.92.81,4.3a11.84,11.84,0,0,1-1.76,5.7c-.48.64-3-.55-4.59-.39a31.28,31.28,0,0,0-5.26,1.38l-8.2-3Z"/><path class="cls-17" d="M386.69,641.87,383,651l-1.38-.2V633.93q2.31-10,4.63-20l3.45-11.85c.73-2,1.46-4.07,2.18-6.1l-.11.08L396,586.2l.71.27-2.15,35.25c-1.21,3-2.44,6.1-3.63,9.16C389.49,634.54,388.1,638.21,386.69,641.87Z"/><path class="cls-18" d="M459.79,486.58c-.16,2.24-.33,4.47-.5,6.84l-5.51-.62-1-2.94,4.83,1.64c.31-1.7,1.22-3.56.83-5.08-3.54-14-7.3-28-11-41.94l-1.44.39-1.11,2.44c0-3,.1-5.55,0-8.08-.41-9-.84-18-1.4-27-.07-1.1-.92-2.15-1.42-3.22-.81.95-2.35,1.92-2.32,2.83.55,12.76,1.32,25.51,2,37.86l4.91.23a7.18,7.18,0,0,0-.5,1.92c.11,4.29-.42,8.78,3.46,12h0a44.29,44.29,0,0,0,.87,6.55c1,3.42,2.45,6.7,3.38,10.13.26.94-.66,2.19-1,3.31a7.84,7.84,0,0,1-1.06-1.63q-6.17-18.68-12.27-37.36l-2-34.94.09-1.3,8-2.52c0,.6.09,1.19.13,1.79q.32,14.25.62,28.5c.32,1.49.63,3,.95,4.46,1.94,5.93,4.16,11.78,5.76,17.8C455.51,467.89,457.56,477.26,459.79,486.58Z"/><path class="cls-19" d="M352.6,542.84c.1,1.77,1,4.21.15,5.16-1.52,1.73-4.83,4.08-6,3.47A10.35,10.35,0,0,1,342,545c-.47-2.49,1.78-4.47,4.94-4.17a22.71,22.71,0,0,0,3.27-.2c-.07-1.14-.2-2.05-.17-3,.1-3.45,1.61-5.73,5.32-5.79s5.93,1.9,6.2,5.65-1.75,5.48-5.47,5.33c-1.17,0-2.33,0-3.5,0l-.42-.23Z"/><path class="cls-20" d="M328.6,565.84c-4-3.43-3.68-5.93.12-9,1.93-1.57,3-4.21,4.45-6.37l-1.09-.54,7.68-1.89a65.69,65.69,0,0,1,4,6.19c.5,1,.43,3.29,0,3.44-1.34.51-3.22.85-4.39.26-1.79-.92-3.16-2.65-4.71-4l-1.43,1.2c1.48,1.81,3.37,3.42,4.33,5.47a13.42,13.42,0,0,1,1.46,7.26c-.18,1.09-3.32,1.71-6.21,3,2.36-2.46,3.74-3.9,5.11-5.35-3.47.83-5.92,4.95-9.38.36,1.16,0,2.66.4,3.4-.17,1.36-1,2.26-2.68,3.36-4.08l-4.42-3.35a36.06,36.06,0,0,0-3.07,4.8C327.56,563.73,328.33,564.9,328.6,565.84Z"/><path class="cls-21" d="M544.51,674.74l-20.84,2.93c2.44-.93,4.81-2.2,7.34-2.73,3.54-.73,7.19-.9,11.57-1.4V562.84l.74-1,.48,1.65c-.06.66-.17,1.33-.17,2q0,52.32,0,104.66a17.24,17.24,0,0,0,.83,3.73l.2-.09A3,3,0,0,0,544.51,674.74Z"/><path class="cls-19" d="M464.61,718.83l3,3h0c-.14,3.19.8,6.69-3.22,8.6-.52.24-.07,2.55-.07,4.65l-9.48-9.79c1.76-3.91,4.55-6.89,9.77-6.47Z"/><path class="cls-22" d="M452.76,489.86l1,2.94L440.7,501c1-2.12,2-4.25,3-6.57,4.92-.26,7.32-2.25,6.76-7.14-.61-5.35-.87-11.32-3.44-15.77-4.88-8.41-6.27-17.57-8.44-26.64h.88q6.12,18.68,12.27,37.36a7.84,7.84,0,0,0,1.06,1.63C452.79,485.84,452.78,487.85,452.76,489.86Z"/><path class="cls-22" d="M459.79,486.58c-2.23-9.32-4.28-18.69-6.75-27.95-1.6-6-3.82-11.87-5.76-17.8l1.29-.09c2.76,7.53,6,14.91,8.16,22.61,2.58,9.34,4.18,18.94,6.27,28.75l4.48,3.93-6.7-2.66C460.44,491,460.12,488.81,459.79,486.58Z"/><path class="cls-10" d="M394.55,621.72l2.15-35.25-.71-.27-4.19,9.86c.85-4.25,1.7-8.49,2.9-14.56,1.74,2.36,3.7,3.79,3.62,5.09-.62,10.08-1.61,20.14-2.54,30.19-.31,3.39-.78,6.76-1.17,10.13Z"/><path class="cls-23" d="M514.49,485c-.12-1.74.11-3.6-.44-5.19-3.22-9.4-6.66-18.72-9.93-28.09a17.87,17.87,0,0,1-.49-3.9q1.94,4,3.86,8.05l6.24,15.95,5.13,18.9h-1.09l-.23.11Z"/><path class="cls-12" d="M492.65,712.75c1.48,6.55,3.16,13.06,4.38,19.65,1.7,9.12,3.05,18.3,4.55,27.45a21,21,0,0,1-1.91-4.38q-2.66-13.92-5-27.89C493.82,722.67,493.31,717.7,492.65,712.75Z"/><path class="cls-20" d="M481.61,705.83c3.88,1.21,6,3.54,4.54,7.77-1,2.95-3,4.09-6,2.62l4.95-4.53-.63-.43-8.32,3.67c0,.31-.1,1.47-.18,2.64-.75,0-1.57.16-1.66,0a7.33,7.33,0,0,1-1.1-3.21c.08-1.18.88-2.32,1.37-3.48l0,0,5.71,1.26q.63-3.12,1.27-6.24Z"/><path class="cls-22" d="M440.73,501c-6.32,9.63-4.8,18.71,3,27.74-3.67-.76-8.36-6.18-8.15-9.68.27-4.44.8-8.85,1.07-13.29a22.45,22.45,0,0,0-.63-4.25Z"/><path class="cls-22" d="M543.32,561.86l-.74,1c-2.67-7.21-5.47-14.38-8-21.65-1.27-3.71-2-7.6-3-11.41l.2-.15,2.83,6.18q4.38,12.63,8.75,25.27A3.51,3.51,0,0,1,543.32,561.86Z"/><path class="cls-22" d="M527.64,517.81q-1.64-3.13-3.26-6.28c-3-5.71-2.11-13.16-8-17.66-.25-.19.71-2,1.11-3l.23-.11,1.79,2.23L528,517.51Z"/><path class="cls-16" d="M466.6,563.85c.93,2,1.77,4,2.81,5.86.7,1.29,1.68,2.42,1.8,4.51l-3.14-.84c-.34,1.33-.67,2.66-1.18,4.67l-3.22-6.74a36,36,0,0,1,1.09-4.63,15.76,15.76,0,0,1,1.83-2.84Z"/><path class="cls-3" d="M317.6,574.89l.95,1c0,2,0,4,.05,6h-7C311.63,574.91,311.63,574.91,317.6,574.89Z"/><path class="cls-16" d="M464.05,584.93c-7.26-5.29-7.78-6.16-6.81-9.78l7.85,5.05Z"/><path class="cls-21" d="M439.48,444.84h-.88c-.67-10.24-1.39-20.48-2-30.72-.08-1.39.54-2.82.83-4.23Z"/><path class="cls-12" d="M394.55,621.72l.06,5.19c-1.46,3.91-2.75,7.9-4.47,11.69-.61,1.33-2.27,2.19-3.45,3.27,1.41-3.66,2.8-7.33,4.23-11C392.11,627.82,393.34,624.77,394.55,621.72Z"/><path class="cls-20" d="M479.84,696l9.41,8.9-1.15,1.28-9.86-8.49C478.77,697.16,479.3,696.59,479.84,696Z"/><path class="cls-20" d="M317.6,574.89c-6,0-6,0-6,7l-3.33-2.72C312.34,572.16,314.44,571.24,317.6,574.89Z"/><path class="cls-10" d="M386.28,613.93q-2.31,10-4.63,20c1-6.31,2-12.63,3.15-18.92C384.88,614.57,385.77,614.28,386.28,613.93Z"/><path class="cls-20" d="M464.6,718.83c-1.29-4.5,0-6.33,5.26-7.4l-5.25,7.4Z"/><path class="cls-20" d="M311.6,581.84h7l-2,5.48C315.19,585.79,313.39,583.82,311.6,581.84Z"/><path class="cls-20" d="M474.59,705.83c3-4.49,4.09-4.68,6-1l0,0-6,1Z"/><path class="cls-20" d="M320.59,566.83l3.92-2.4.66,1.94-4.56.48Z"/><path class="cls-20" d="M318.6,581.85c0-2,0-4-.05-6C321.78,577.82,321.69,579.82,318.6,581.85Z"/><path class="cls-20" d="M474.59,710.85c-3.76-1.67-2.1-3.34,0-5l0,0v5Z"/><path class="cls-22" d="M529.64,523.82q-1-3-2-6l.37-.3c.68,2,1.36,4,2,6Z"/><path class="cls-16" d="M488.6,549.84l2.65,1.7-2.65,1.3h0c0-1,0-2,0-3Z"/><path class="cls-20" d="M319.61,567.85v3l0,0L317,569.54l2.64-1.71Z"/><path class="cls-10" d="M391.91,596c-.72,2-1.45,4.07-2.18,6.1Q390.82,599,391.91,596Z"/><path class="cls-22" d="M531.66,529.78q-1-3-2-6l.41-.32c.61,2,1.21,4.09,1.82,6.13Z"/><path class="cls-22" d="M443.75,528.63l3,2.08Z"/><path class="cls-22" d="M446.75,530.64l2.82,1.29Z"/><path class="cls-22" d="M470.54,498.35,467.45,496Z"/><path class="cls-20" d="M467.6,721.84l.77-1.57,1.24,1.57h-2Z"/><path class="cls-20" d="M323.32,575.25c.28.12.72.18.8.38s-.2.54-.32.82c-.28-.12-.71-.18-.8-.38S323.2,575.53,323.32,575.25Z"/><path class="cls-16" d="M459.33,570.22c.28.12.71.18.79.39s-.2.53-.32.81c-.28-.12-.72-.18-.8-.38S459.2,570.5,459.33,570.22Z"/><path class="cls-20" d="M469.61,721.84l1.52,1.2-.33.32c-.4-.5-.8-1-1.21-1.51Z"/><path class="cls-20" d="M328.59,569.85l-1.31-.39.26-.38,1.07.75Z"/><path class="cls-20" d="M320.61,566.85c-.34.33-.67.67-1,1l0,0,1-1Z"/><path class="cls-20" d="M319.61,570.83l.4.43-.42-.4Z"/><path class="cls-20" d="M328.61,569.83l.43.25-.45-.23Z"/><path class="cls-20" d="M480.62,704.83l1,1,0,0-1-1Z"/><path class="cls-24" d="M507.49,455.91q-1.92-4-3.86-8.05l-2.4-6q-2.73-5.6-5.45-11.2l.07.08-2.1-4.05.06.08-5.05-9.07.06.06-3.06-5.08.07.09c-.4-.65-.8-1.3-1.19-2l0,0-.9-1.22.1.09-3.24-4.57Q478,402,475.44,398.8c-.91-1.37-1.83-2.73-2.75-4.1l.06.07-1-1.16.07.07-20.13-17-2-4.92,0,0c-3.38-7.65-7.35-15.09-10-23-4.34-13-3.15-26.54-3.18-40l.12-2c.28-3,.57-6,.85-9l.18-3c2.09-14.54,5.11-28.81,12.05-42l0,.05,8-11.07,0,0,8.38-7.41.23-.21,12.2-6.15c-1,1.86-1.55,4.28-3.06,5.46-2.57,2-2.77,4-1.64,7-.24-5.44,2.75-6.3,6.82-5.82,1.61,5.94,1.18,6.72-4.53,8.19l.39,1.22,8.08-2.68,1.79,2.92c.68-5.91-1.76-8.29-5.71-9.67-.92-2.76-.22-4.3,3-4,.4.51.81,1,1.22,1.52l.32-.32-1.52-1.22-2.26-3.56c10.29-2.07,18.8,2.51,27.25,7.32l1.91,1.28q8,8.53,16.06,17l7.28,12,.73,1.05.47,1.09,3.52,6.89.31,1,.66,1.07,0-.06c1,2.59,2.13,5.12,2.93,7.76,3.72,12.25,8.12,24.37,10.78,36.86,2.41,11.32-.13,22.62-4.63,33.33h0q-5.61,8.93-11.2,17.85h0l-21.75,21.19,17.91-6.11,1-.4,8.15-4.75c-1.3,5-2.78,9.32-3.48,13.81-.35,2.21.76,4.66,1.21,7l6-1.18c.06.6.11,1.19.17,1.79-.29,2.75-.74,5.5-.83,8.26-.47,14.51-.85,29-1.26,43.55l-1,0c-10.45,0-20.91-.14-31.36-.08C510.64,454.8,509.07,455.52,507.49,455.91Zm-27-210,.18,1,2.56-.87-.29-.87Zm8.35-11.36v-.39h-1.51v.39Z"/><path class="cls-9" d="M548.59,353.84c4.5-10.71,7-22,4.63-33.33-2.66-12.49-7.06-24.61-10.78-36.86-.8-2.64-2-5.17-2.93-7.76,3.45-.61,2.8,2.4,3.67,4.12,2.16,4.26,4.38,8.49,7.56,14.62.35,3,.33,8.61,1.75,13.85,3.8,14,4.67,27.71-.82,41.37C551.06,351.35,549.64,352.52,548.59,353.84Z"/><path class="cls-9" d="M436.52,308.84c0,13.41-1.16,27,3.18,40,2.65,7.9,6.62,15.34,10,23-1.63-1.24-3.91-2.13-4.77-3.77-3.24-6.1-6.68-12.15-7.29-19.33-.37-4.4-1.63-8.73-2-13.13-.78-8.25-1.29-16.52-1.7-24.79C433.87,310.17,435.61,309.49,436.52,308.84Z"/><path class="cls-9" d="M478.47,228.16l-12.2,6.15q-.66-3.3-1.3-6.6a66.77,66.77,0,0,0,6.94-.33c4.87-.73,9.72-2.41,14.56-2.36,4.68,0,9.39,1.6,14,2.84a16.42,16.42,0,0,1,5.6,3.06c1.12.87,1.7,2.42,2.53,3.67-8.45-4.81-17-9.39-27.25-7.32Z"/><path class="cls-9" d="M449.72,252.92c-6.94,13.14-10,27.41-12.05,42,.07-4.13-.39-8.35.31-12.36a125.61,125.61,0,0,1,5-20.59C444.14,258.58,445.05,254.06,449.72,252.92Z"/><path class="cls-9" d="M526.57,252.92q-8-8.52-16.06-17c3.88.93,7.8,1.55,10.24,5.47.82,1.32,2.8,1.91,4.59,3Z"/><path class="cls-25" d="M465.61,401.83c2.78,2.64,2.71,5.51-.27,7.52-1.21.81-2.56,1.4-3.89,2.11-5.12-1.93-6-5.86-4.88-10.7,0-.29.06-.58.11-.88l7.93.95,0,0a19.94,19.94,0,0,0-2.45.07c-2.8.39-4.23,2.17-3.38,4.77.42,1.28,2.25,2.1,3.44,3.12a52.43,52.43,0,0,0,3.34-4.54c.36-.6,0-1.6,0-2.42Z"/><path class="cls-9" d="M457.69,241.9l-8,11.07a24.59,24.59,0,0,0,.45-4.8c-.66-6.37-.73-6.36,5.58-6.32C456.38,241.85,457,241.88,457.69,241.9Z"/><path class="cls-9" d="M537.4,371.69q5.6-8.93,11.2-17.85c-1.07,3.23-2,6.52-3.25,9.67-1,2.52-2.44,4.88-4.13,8.18Z"/><path class="cls-9" d="M466,234.52l-8.38,7.41c0-.32,0-.65,0-1C457.53,233.11,458,232.73,466,234.52Z"/><path class="cls-19" d="M445.71,407.87c0-.6-.09-1.19-.13-1.79l3.83-1.09q-1,8.88-2,17.75c-.27-1.91-.58-3.81-.79-5.72C446.28,414,446,410.92,445.71,407.87Z"/><path class="cls-9" d="M449.67,371.74l2,4.92v1.23l-1.08,4.95Z"/><path class="cls-9" d="M437.49,297.84c-.28,3-.57,6-.85,9C435.5,303.72,434,300.55,437.49,297.84Z"/><path class="cls-9" d="M538.57,273.9,535.05,267C538.34,268.23,539.33,270.62,538.57,273.9Z"/><path class="cls-9" d="M534.58,265.92l-.73-1.05Z"/><path class="cls-9" d="M539.54,276l-.66-1.07Z"/><path class="cls-26" d="M595.92,699l-22.46-2.26a9.16,9.16,0,0,1,.25-1.83c2.31-.11,4.64.09,6.94-.12a18.81,18.81,0,0,0,6.22-1.29c5.76-2.68,6-7.26.89-10.91a35.46,35.46,0,0,0-21.18-6.76l-8-13,0,0c-.28-1-.56-2-.85-3-.22-6.2,1.06-7.51,7.78-8l8.62,8,.6-.67-4.41-7.65-.15-.32c-1.23-2.7-2.52-5.38-3.65-8.12-1.58-3.82-4-8.49-.08-11.38s8.07.69,11.37,3.38c2.93,2.39,5.57,5.16,8.33,7.75-.87-2.93-2.64-5.18-3.57-7.73-.83-2.28-.72-4.89-1-7.36,2.53-.18,5.31-1.12,7.55-.38,3.65,1.19,6.94,3.48,10.39,5.3l6.11,3.87,7.64,5.65.05.12c1.88,1.43,3.71,2.95,5.7,4.21.33.2,1.38-.73,2.09-1.13l0-.28-.27,0,1-1.14-.09.07,2.35-3.09,1.56-1.84,2.1-2.21.9-.48,2-1.52-.06.05c.61-1.31,1.55-2.58,1.77-4,.72-4.68,1.18-9.39,1.74-14.09,2.73-3.42,2.39-8.66,7.64-10.73,7.91-3.11,11.91-.83,11.72,7.58,0,.66,0,1.32,0,2a26.52,26.52,0,0,0-2.52,4.64,53.43,53.43,0,0,0-1.34,27.49,31.58,31.58,0,0,0,.43,3.4c2.18,9.3,6.3,18.44,2.25,28.24a50.6,50.6,0,0,1-1.92,5.6c-3.64,7.62-11.29,10.15-18,13.91l-23.6.69Z"/><path class="cls-14" d="M552.82,430.77c6.61,14.45,13.09,29,19.92,43.3,1.75,3.68,4.6,6.84,6.49,9.58l-30.44,44.13-4.5,1.65c.47-5.89,1.16-11.07,1.26-16.27.45-22.53.63-45.07,1.12-67.6.16-7.57.92-15.13,1.41-22.59l3.41,2.85.93,3.05-1.41.92Z"/><path class="cls-8" d="M566.79,454.88a19,19,0,0,0,2.92-.89c1.35-.66,2.61-1.51,3.91-2.28l2.82.07c2.75,3.69,5.62,7.28,8.22,11.07,12.12,17.62,25.47,34.15,41.86,48-3.17-.19-3.23,1.93-3.09,4.19L610,504.75l-2.31-2.05,0,0-2.94-2.15v.09l-1-1,.07,0-14.07-15h0l-5.07-6h.06l-4.06-5h0l-1.17-1.85Z"/><path class="cls-23" d="M551.49,425.82,548.08,423c-.49,7.46-1.25,15-1.41,22.59-.49,22.53-.67,45.07-1.12,67.6-.1,5.2-.79,10.38-1.26,16.27l4.5-1.65q-2.14,4.92-4.3,9.82l-1.18.69c-.08-1.63-.27-3.26-.24-4.89q.73-39.28,1.51-78.56c.41-14.52.79-29,1.26-43.55.09-2.76.54-5.51.83-8.26l1,1.39Z"/><path class="cls-20" d="M660.44,566.78l-2.56,3.12-5.14.51c1.92-2.74,6.57-2.56,5.17-7.2-3.8,5.12-5.8,5.6-9.81,2.26,0,.14.43.65.9,1.15,2-1,4.28-1.8,6-3.25.39-.34-.87-3.27-2-4.38-.63-.62-3.36-.4-3.71.23a13,13,0,0,0-1.15,6.25c-3.44-3-3.51-6.14.71-8.48,3.22-1.79,4.65-3.93,3.29-6.88l7.72-2.26a70.28,70.28,0,0,1,3.54,6.38c.49,1.11.2,2.56.26,3.86-1.38,0-3,.5-4.08-.09-1.77-1-3.17-2.69-5.64-3.46Z"/><path class="cls-7" d="M544.58,454.84q-.76,39.29-1.51,78.56c0,1.63.16,3.26.24,4.9.1,1.85.19,3.7.29,5.56l.42,2c.47,2,1,4,1.43,5.93-1.5-3.13-4.27-6.26-4.27-9.38,0-13.25,1-26.49,1.36-39.74.46-15.94.7-31.88,1-47.82Z"/><path class="cls-19" d="M671.57,533.87c.79,3.48,1.5,7,2.42,10.41.19.7,1.16,1.2,1.77,1.79l-5.93,7.83a28.21,28.21,0,0,0-3.23-2c-3.05-1.42-5.38-3.4-4.78-7.07s3.56-4.22,6.75-4a3.88,3.88,0,0,0,1.34-.39C670.48,538.15,671,536,671.57,533.87Z"/><path class="cls-10" d="M599.52,632.69c-3.45-1.82-6.74-4.11-10.39-5.3-2.24-.74-5,.2-7.55.38.3,2.47.19,5.08,1,7.36.93,2.55,2.7,4.8,3.57,7.73-2.76-2.59-5.4-5.36-8.33-7.75-3.3-2.69-7.28-6.38-11.37-3.38s-1.5,7.56.08,11.38c1.13,2.74,2.42,5.42,3.65,8.12-4.68-3.27-8.87-14.74-6-18.7,1.3-1.81,5-2.44,7.64-2.57,1.89-.08,3.85,1.58,5.61,2.38,1.58-2.28,2.71-5.25,4.85-6.55,1.73-1,5-.8,7,.16C592.94,627.7,596.13,630.39,599.52,632.69Z"/><path class="cls-22" d="M585.81,433.31l13.89,12.35c-2.4,1.43-4.33,3-4.15-2.05.07-1.78-3.06-3.67-4.51-5.28l-6,3.15,2.62-4.69c-1.32-.93-2.49-2.21-3.93-2.65a47.62,47.62,0,0,0-9.62-2.09c-1.62-.14-4.05.52-4.85,1.69s-.28,3.56.46,5c1.31,2.57,3.35,4.76,4.84,7.26.42.7,0,1.92-.06,2.89l-2.8-2.27a1.19,1.19,0,0,0-.2-.8c-.9-1.53-1.88-3-2.66-4.61-1.53-3.09-3.14-6.22-.71-9.62a2.45,2.45,0,0,0,.08-.29Z"/><path class="cls-21" d="M565.54,651.88c-6.72.47-8,1.78-7.78,8a1.82,1.82,0,0,0-.17.89l-1.14-.79q0-3.08.07-6.17l.14.06a21.26,21.26,0,0,0,.9-4.21q.09-27.82,0-55.64a21.8,21.8,0,0,0-.84-4.24l-.17-1.81c0-.69,0-1.37.05-2.06.67,2.29,1.89,4.57,1.91,6.86.15,19.25.09,38.51.09,57.67l9,1.43Z"/><path class="cls-22" d="M556.6,585.89c0,.69,0,1.37-.05,2.06l-1.07-2q-5-17.05-10-34.1c-.48-2-1-3.95-1.43-5.93l3.58,3h0c.06,1.7-.21,3.49.23,5.08,2.29,8.24,4.42,16.55,7.37,24.56C556.13,581,557.45,583.14,556.6,585.89Z"/><path class="cls-17" d="M623.43,515.08c-.14-2.26-.08-4.38,3.09-4.19,2,1.42,4.24,2.6,5.84,4.37.86,1,.58,2.92.82,4.43-1.38,0-3.07.58-4.09,0A43.8,43.8,0,0,1,623.43,515.08Z"/><path class="cls-18" d="M562.37,421.93c3.3.07,4.22,2.69,3.15,4.71-4,7.56-3.79,14.84-.08,22.35.52,1,.15,2.51.19,3.78l-2.31-4c-.5-1.05-1-2.11-1.49-3.16l.08.08c-1.79-6.07-.92-11.94.9-17.88C563.35,426.07,562.55,423.91,562.37,421.93Z"/><path class="cls-3" d="M637.6,574.89l.95,1c0,2,0,4,.05,6h-7C631.63,574.91,631.63,574.91,637.6,574.89Z"/><path class="cls-22" d="M562.37,421.93c.18,2,1,4.14.44,5.9-1.82,5.94-2.69,11.81-.9,17.88-4.24-3.83-2.2-8.58-1.7-13,.46-4,2.89-7.81.35-11.85l.12-.11a4.47,4.47,0,0,1,.86.26Z"/><path class="cls-22" d="M589.75,484.68l14.07,15Z"/><path class="cls-20" d="M637.6,574.89c-6,0-6,0-6,7l-3.33-2.72C632.34,572.16,634.44,571.24,637.6,574.89Z"/><path class="cls-10" d="M565.54,651.88l2.05,0,2.75-.3q2.22,3.83,4.42,7.65l-.6.67Z"/><path class="cls-22" d="M560.48,419.41l-.07.25.19.18a2.25,2.25,0,0,0,.08.93l-.12.11a13.34,13.34,0,0,1-7.88-10.17l5.72,6.2Z"/><path class="cls-13" d="M613.27,642.21l-7.64-5.65,1.92.5C609.21,639,613.89,637.68,613.27,642.21Z"/><path class="cls-20" d="M631.6,581.84h7l-2,4,0,0Z"/><path class="cls-22" d="M584.73,478.69l5.07,6Z"/><path class="cls-22" d="M580.73,473.7l4.06,5C581.57,478.55,580.48,476.67,580.73,473.7Z"/><path class="cls-22" d="M543.6,543.86c-.1-1.86-.19-3.71-.29-5.56l1.18-.7C544.19,539.68,543.9,541.77,543.6,543.86Z"/><path class="cls-18" d="M571.67,446.63l2.8,2.27,2,2.88-2.82-.07Z"/><path class="cls-20" d="M640.59,566.83l3.92-2.4.66,1.94-4.56.48Z"/><path class="cls-20" d="M638.6,581.85c0-2,0-4-.05-6C641.78,577.82,641.7,579.82,638.6,581.85Z"/><path class="cls-20" d="M639.59,570.86,637,569.54l2.64-1.71,0,0v3Z"/><path class="cls-20" d="M644.24,575.58c-.12.28-.18.72-.38.8a.83.83,0,0,1-.78-.34.86.86,0,0,1,.33-.78C643.62,575.18,644,575.46,644.24,575.58Z"/><path class="cls-22" d="M604.79,500.59l2.94,2.15Z"/><path class="cls-22" d="M561.83,445.63c.5,1.05,1,2.11,1.49,3.16C562.82,447.74,562.33,446.68,561.83,445.63Z"/><path class="cls-23" d="M552.82,430.77l-1.81-1,1.41-.92C552.55,429.51,552.69,430.14,552.82,430.77Z"/><path class="cls-22" d="M579.6,471.84l1.17,1.85h-2.34l-1-1.18Z"/><path class="cls-22" d="M607.7,502.7l2.31,2.05Z"/><path class="cls-20" d="M636.61,585.83l1.3.39-.26.38-1.06-.75Z"/><path class="cls-20" d="M647.58,569.08l.33.16-.47.36c-.05-.1-.18-.23-.15-.3S647.47,569.15,647.58,569.08Z"/><path class="cls-20" d="M639.61,570.83l.4.43-.42-.4Z"/><path class="cls-22" d="M551.69,409.49l1,1.31Z"/><path class="cls-20" d="M639.59,567.83l1-1,0,0c-.34.33-.67.67-1,1Z"/><path class="cls-22" d="M547.6,548.84l.41.23-.41-.23Z"/><path class="cls-22" d="M603.75,499.65l1,1Z"/><path class="cls-16" d="M595.92,699l13,.68-5.31,1.15h-6c.48,7.62.53,14.67,1.47,21.61,1,7.47,2.88,14.83,4.28,22.25.12.64-.49,1.42-.76,2.14-5.74-10.83-4.22-22.92-5.87-34.45C596.08,708,596.16,703.47,595.92,699Z"/><path class="cls-13" d="M649.7,647.85A53.43,53.43,0,0,1,651,620.36a26.52,26.52,0,0,1,2.52-4.64c-1.06,6.1-2.48,12.17-3,18.33-.33,3.61.72,7.35,1.15,11l-1.23,2.54A4.83,4.83,0,0,1,649.7,647.85Z"/><path class="cls-10" d="M649.7,647.85a4.83,4.83,0,0,0,.74-.22c2.1,9.54,7.68,18.58,4.19,28.92a33.36,33.36,0,0,1-1.49,3.42.84.84,0,0,1-.43-.12,2.28,2.28,0,0,1-.33-.36c4-9.8-.07-18.94-2.25-28.24A31.58,31.58,0,0,1,649.7,647.85Z"/><path class="cls-10" d="M603.59,700.84l5.31-1.15,23.6-.69c-6.82.62-13.64,1.31-20.47,1.83C609.23,701,606.4,700.85,603.59,700.84Z"/><path class="cls-6" d="M545.45,551.81q5,17.06,10,34.1c0,3,.11,6,.11,9,0,17.89,0,35.78,0,53.67a32.24,32.24,0,0,0,.88,5.18q0,3.09-.07,6.17c-.09.49-.17,1-.26,1.46l1.4-.67a1.82,1.82,0,0,1,.17-.89c.29,1,.57,2,.85,3l-1.7.77.44.62,1.24-1.41,8,13-22.07-1.1a3,3,0,0,1,.15-.94c.32-3.23.89-6.45.9-9.68q.11-48.66,0-97.31c0-1.91-1.35-3.82-2.07-5.73q-4.38-12.63-8.75-25.27c0-2,.4-4.12-.2-5.92-3.06-9.22-6.59-18.28-9.55-27.53-2.87-9-7.74-17.58-5.44-27.5l-5.77-3-6.24-15.95c1.58-.39,3.15-1.11,4.73-1.12,10.45-.06,20.91,0,31.36.08-.34,15.94-.58,31.88-1,47.82-.39,13.25-1.35,26.49-1.36,39.74C541.18,545.55,544,548.68,545.45,551.81Z"/><path class="cls-13" d="M634.16,616.89c-.56,4.7-1,9.41-1.74,14.09-.22,1.38-1.16,2.65-1.77,4,.31-4.85.46-9.72,1-14.54C631.83,619.15,633.3,618.06,634.16,616.89Z"/><path class="cls-13" d="M621.11,645.41c-.71.4-1.76,1.33-2.09,1.13-2-1.26-3.82-2.78-5.7-4.21Z"/><path class="cls-13" d="M624.11,640.94,621.76,644Z"/><path class="cls-13" d="M627.77,636.89l-2.1,2.21Z"/><path class="cls-13" d="M630.71,634.89l-2,1.52Z"/><path class="cls-13" d="M621.85,644l-1,1.14Z"/><path class="cls-12" d="M610.16,447.11,604.31,439Z"/><path class="cls-12" d="M604.36,439.09c-.74-.89-1.49-1.78-2.25-2.66Z"/><path class="cls-12" d="M610.74,448.79l-.65-1.46C610.3,447.82,610.52,448.31,610.74,448.79Z"/><path class="cls-18" d="M585.81,433.31l-17.63-2c.29-.69.39-1.76.89-2C572.61,427.55,583,430.11,585.81,433.31Z"/><path class="cls-18" d="M568.1,431.6c-2.43,3.4-.82,6.53.71,9.62.78,1.59,1.76,3.08,2.66,4.61-4.06-2-7.27-9.57-5.61-13.57C566.05,431.81,567.33,431.81,568.1,431.6Z"/><path class="cls-18" d="M560.48,419.41l-2.08-2.5Z"/><path class="cls-18" d="M560.68,420.77a2.25,2.25,0,0,1-.08-.93l.94,1.19A4.47,4.47,0,0,0,560.68,420.77Z"/><path class="cls-2" d="M534.61,386.36l-1,.4-6.69-.63,9.3-7.93,1.32.24Z"/><path class="cls-3" d="M445.71,407.87c.3,3.05.57,6.1.91,9.15.21,1.91.52,3.81.79,5.72l-1.08,13.64Q446,422.12,445.71,407.87Z"/><path class="cls-23" d="M451.68,377.89v-1.23l20.13,17-3.2-.84-1.95-1.92Z"/><path class="cls-23" d="M495.78,430.62q2.73,5.61,5.45,11.2C496.89,439.32,496.44,434.92,495.78,430.62Z"/><path class="cls-23" d="M488.76,417.66l5.05,9.07Z"/><path class="cls-25" d="M466.66,390.92l1.95,1.92-3.07,4.44-1-.28Z"/><path class="cls-23" d="M480.62,405.12l3.24,4.57Z"/><path class="cls-23" d="M485.76,412.64l3.06,5.08Z"/><path class="cls-23" d="M472.69,394.7c.92,1.37,1.84,2.73,2.75,4.1C474.53,397.43,473.61,396.07,472.69,394.7Z"/><path class="cls-23" d="M493.75,426.65l2.1,4.05Z"/><path class="cls-25" d="M470.85,403.47c-.28-.12-.71-.18-.79-.38s.2-.54.31-.82c.28.12.72.18.8.38S471,403.19,470.85,403.47Z"/><path class="cls-23" d="M484.64,410.78c.39.65.79,1.3,1.19,2Z"/><path class="cls-25" d="M464.35,413.82c-.05.11-.08.25-.16.31s-.2,0-.3-.07l.25-.55Z"/><path class="cls-23" d="M471.74,393.61l1,1.16C472.41,394.39,472.07,394,471.74,393.61Z"/><path class="cls-25" d="M464.61,400.83c.33.34.67.67,1,1l0,0-1-1Z"/><path class="cls-23" d="M483.76,409.6l.9,1.22Z"/><path class="cls-26" d="M457.14,502.69a10.16,10.16,0,0,1,10.49,10.74c-.09,6.09-4.66,10.47-10.91,10.45s-10.37-4.31-10.29-10.82S450.59,502.64,457.14,502.69Z"/><path class="cls-1" d="M488.59,549.85c0,1,0,2,0,3l-5.1-3.5.77-1.15Z"/><path class="cls-1" d="M485.6,555.84l-2.58-.52.45-1.28,2.13,1.8Z"/><path class="cls-7" d="M452.76,489.86c0-2,0-4,.05-6,.38-1.12,1.3-2.37,1-3.31-.93-3.43-2.42-6.71-3.38-10.13a44.29,44.29,0,0,1-.87-6.55c.12-.43.25-.86.37-1.29l-.37,1.29c-3.88-3.21-3.35-7.7-3.46-12a7.18,7.18,0,0,1,.5-1.92l-4.91-.23c-.69-12.35-1.46-25.1-2-37.86,0-.91,1.51-1.88,2.32-2.83.5,1.07,1.35,2.12,1.42,3.22.56,9,1,18,1.4,27,.11,2.53,0,5.06,0,8.08l1.11-2.44,1.44-.39c3.7,14,7.46,27.93,11,41.94.39,1.52-.52,3.38-.83,5.08Z"/><path class="cls-1" d="M352.6,542.84l-.42-.23.42.23Z"/><path class="cls-3" d="M328.6,565.84c-.27-.94-1-2.11-.73-2.8a36.06,36.06,0,0,1,3.07-4.8l4.42,3.35c-1.1,1.4-2,3-3.36,4.08-.74.57-2.24.15-3.4.17Z"/><path class="cls-27" d="M543.44,561.08c.72,1.91,2.07,3.82,2.07,5.73q.19,48.65,0,97.31c0,3.23-.58,6.45-.9,9.68l-.2.09q.06-53.79.1-107.6a10.68,10.68,0,0,0-.76-2.78l-.48-1.65A3.51,3.51,0,0,0,543.44,561.08Z"/><path class="cls-28" d="M543.8,563.51a10.68,10.68,0,0,1,.76,2.78q0,53.81-.1,107.6a17.24,17.24,0,0,1-.83-3.73q0-52.33,0-104.66C543.63,564.84,543.74,564.17,543.8,563.51Z"/><path class="cls-7" d="M513.73,471.86l5.77,3c-2.3,9.92,2.57,18.54,5.44,27.5,3,9.25,6.49,18.31,9.55,27.53.6,1.8.16,3.94.2,5.92l-2.83-6.18c-.61-2-1.21-4.09-1.82-6.13s-1.35-4-2-6q-4.21-12.25-8.45-24.51c-.23-.75-.47-1.5-.7-2.24Z"/><path class="cls-14" d="M518.86,490.76c.23.74.47,1.49.7,2.24l-1.79-2.23Z"/><path class="cls-3" d="M480.59,704.86l1,1q-.64,3.12-1.27,6.24l-5.71-1.26v-5Z"/><path class="cls-4" d="M480.61,234.83c3.95,1.38,6.39,3.76,5.71,9.67l-1.79-2.92-8.08,2.68-.39-1.22c5.71-1.47,6.14-2.25,4.53-8.19Z"/><path class="cls-4" d="M478.47,228.16l2.88-.89,2.26,3.56,0,0c-3.2-.32-3.9,1.22-3,4l0,0c-4.07-.48-7.06.38-6.82,5.82-1.13-3-.93-5,1.64-7C476.92,232.44,477.48,230,478.47,228.16Z"/><path class="cls-4" d="M480.5,245.9l2.45-.75.29.87-2.56.87Z"/><path class="cls-4" d="M483.61,230.83l1.52,1.22-.32.32c-.41-.5-.82-1-1.22-1.52Z"/><path class="cls-4" d="M488.85,234.54h-1.51v-.39h1.51Z"/><path class="cls-14" d="M464.59,400.85l1,1c0,.82.31,1.82,0,2.42a52.43,52.43,0,0,1-3.34,4.54c-1.19-1-3-1.84-3.44-3.12-.85-2.6.58-4.38,3.38-4.77A19.94,19.94,0,0,1,464.59,400.85Z"/><path class="cls-3" d="M647.6,565.11c.5-2,.7-4.15,1.65-5.89.35-.63,3.08-.85,3.71-.23,1.12,1.11,2.38,4,2,4.38-1.67,1.45-3.91,2.23-6,3.25Z"/><path class="cls-27" d="M556.52,653.79a32.24,32.24,0,0,1-.88-5.18c-.07-17.89,0-35.78,0-53.67,0-3-.07-6-.11-9l1.07,2c.05.6.11,1.2.17,1.81l-.06,64.09Z"/><path class="cls-29" d="M556.66,653.85l.06-64.09a21.8,21.8,0,0,1,.84,4.24q.09,27.81,0,55.64A21.26,21.26,0,0,1,556.66,653.85Z"/><path class="cls-26" d="M557.59,660.75l-1.4.67c.09-.48.17-1,.26-1.46Z"/><path class="cls-26" d="M558.59,662.83l-1.24,1.41-.44-.62,1.7-.77Z"/><path class="cls-18" d="M449.6,463.84l.37-1.29c-.12.43-.25.86-.37,1.29Z"/></svg>