<svg id="Layer_1" data-name="Layer 1" xmlns="http://www.w3.org/2000/svg" viewBox="0 0 747.57 837.45"><defs><style>.cls-1{fill:#c0c3d5;}.cls-2{fill:#d9dae7;}.cls-3{fill:#b3bacf;}.cls-4{fill:#b9bed1;}.cls-5{fill:#181520;}.cls-6{fill:#e6e3ec;}.cls-7{fill:#1d1626;}.cls-8{fill:#e8e8f1;}.cls-9{fill:#aeb4c8;}.cls-10{fill:#d2d4e1;}.cls-11{fill:#e0e2ec;}.cls-12{fill:#f5a999;}.cls-13{fill:#98a1bb;}.cls-14{fill:#df7d7b;}.cls-15{fill:#495c7d;}.cls-16{fill:#c4c5d7;}.cls-17{fill:#d47169;}.cls-18{fill:#f39e8d;}.cls-19{fill:#2a71b0;}.cls-20{fill:#c27777;}.cls-21{fill:#f29684;}.cls-22{fill:#97979d;}.cls-23{fill:#ca7370;}.cls-24{fill:#f18485;}.cls-25{fill:#c9c1d1;}.cls-26{fill:#304059;}.cls-27{fill:#e33b6f;}.cls-28{fill:#bd386c;}</style></defs><path class="cls-1" d="M465.47,692.44l-6.1,1.85-7-5.23c-1.58-.9-3.11-2.48-4.75-2.6-8-.59-16.11-.8-24.16-1.14.33-6.26,1.09-12.54.82-18.77a6.27,6.27,0,0,0-7.08-6.13c-5.24.34-10.45,1.24-15.69,1.7-3.87.33-8,1-10.06-3.74,6-.35,12-.13,17.85-1.18a233,233,0,0,0,26.88-6.42c4.56-1.39,4.68-5.48.6-8.19-5-3.3-10.2-6.19-15.32-9.26,2-5,4.81-8.84,10.86-9.09,1.08,0,2.11-1.25,3.16-1.93,10.9,3,21.84,5.8,32.66,9,2,.59,3.53,2.74,5.28,4.17-.1.09-.29.22-.27.27a3.92,3.92,0,0,0,.34.64l-.08-.09c1.79,7,3.82,13.92,5.31,21,1.17,5.56,1.67,11.26,2.47,16.9h0C479.41,683.23,473,688.35,465.47,692.44Z"/><path class="cls-2" d="M423.49,685.32c8.05.34,16.12.55,24.16,1.14,1.64.12,3.17,1.7,4.75,2.6l1.1,6.66c-13.34,2.21-26.61,5.34-40,6.4-16.54,1.3-33.21,1-49.83,1.12-4.71,0-9.42-1.11-14.14-1.72-1.43-2-3-3.91-4.29-6-4.94-8-9.8-16.11-14.69-24.17l13,3.95c.79.22,1.58.46,2.38.67,10.17,2.78,20.21,6.95,30.56,8C392,685.58,407.79,685,423.49,685.32Z"/><path class="cls-3" d="M243.6,668.91c.35-1.24,1.18-2.57,1-3.7-1.57-8,2.7-14.45,4.88-21.52,3.09-10,5.51-20.19,8.21-30.29.65.62,1.57,1.12,1.89,1.88,2.42,5.64,4.82,11.29,7,17,4.28,11,9.05,21.66,19.17,28.92,3.6,2.57,6.55,6,9.79,9.1a3.81,3.81,0,0,0-1.48.05c-1.83.95-4.39,1.57-5.23,3.1-1.2,2.23-.15,4.41,2.86,5.19a3.68,3.68,0,0,1,2.1,2.54c.53,3.94,2.89,6,6.3,7.59a63.77,63.77,0,0,1,7.41,4.71c-9.93-3-20.1-5.36-29.73-9.12C266.14,679.83,255,674.12,243.6,668.91Z"/><path class="cls-4" d="M307.5,693.49a63.77,63.77,0,0,0-7.41-4.71c-3.41-1.59-5.77-3.65-6.3-7.59a3.68,3.68,0,0,0-2.1-2.54c-3-.78-4.06-3-2.86-5.19.84-1.53,3.4-2.15,5.23-3.1a3.81,3.81,0,0,1,1.48-.05,31.39,31.39,0,0,0,4.57,3.72c2,1.09,4.37,2.62,6.3,2.29,7.74-1.31,15.37-3.27,23-5l1.05,0c4.89,8.06,9.75,16.14,14.69,24.17,1.29,2.08,2.86,4,4.29,6Z"/><path class="cls-5" d="M225.41,381.56c5.22-24.78,19.07-44.72,35.5-63.18,4-4.46,8.49-8.43,12.42-12.92a5.38,5.38,0,0,0,.63-4.91c-14-23.92-18.7-49.9-17.47-77.23,1.09-24,8.8-46,21.67-66,8.74-13.62,21.78-19.87,38-20.2,5.25-.11,10.5-1.34,15.69-2.33,15.1-2.89,30.15-3.57,44.59,2.64,18.46,7.95,28.45,23.09,32.93,41.93a167.34,167.34,0,0,1,4.79,31.94c.27,6.9-2.61,13.92-4.06,20.89-.67,3.26-1.3,6.52-1.94,9.78-1.67-3.52-3.83-6.37-8.78-6.19-.28,1.64-.55,3.19-.81,4.73l-.25.25.16.29-1.7,2.48-.51-1.09c-.4-2.67-.81-5.33-1.21-8l-4.44-23.06,4.15,3.25c.32-2.29.91-3.9.7-5.39-1-7.33-2.38-14.61-3.45-21.93-1.7-11.63-10.08-18.41-18.54-24.77a50.54,50.54,0,0,0-15.77-8c-11.85-3.44-23.93-3.87-35.42,1.82-2.33,1.16-5.14,2.91-6.05,5.09-2.4,5.78-4,11.91-5.71,18-3.51,12.24-8.81,23.8-17.72,32.76-6.41,6.46-14.81,10.95-22.37,16.25-6.49,4.56-6.69,7-.82,12.17-2.61,7.74-1.92,15.34.92,22.85,2.19,4.32,4.62,8.53,6.5,13,2,4.8,5,7.88,10.49,7.95a35.28,35.28,0,0,0,10.26,18.21l.85.89a39,39,0,0,1,1,5.7c.19,5.43.16,10.87.22,16.31l-.12,18.46c.49,6.4-.68,13.52,1.76,19.05,7.59,17.21,16.55,33.82,25,50.67q1.45,5.77,2.9,11.57-.35,12.57-.7,25.13-1.65,11.9-3.29,23.8c-.5,2.07-1,4.14-1.49,6.22q-2.25,7.88-4.52,15.75l-7.44-10.18-.52.6q3.09,8.42,6.2,16.85c1.55,11.66,2.09,23.31-.23,34.95l-6.93,28.93a25.15,25.15,0,0,1-2-4.18c-3-10.83-5-22.17-12.7-30.95-4.87-5.54-10.4-10.5-15.64-15.71l-2.14-1.19-2.71-3.82-26.8-38c-2.72-6.38-6-12.6-8.06-19.18-5.61-17.86-10.7-35.87-16-53.81Q224.9,391,225.41,381.56ZM286.32,428l1.83-.87a23.43,23.43,0,0,1,2.87,3.39,33.34,33.34,0,0,1,4.54,19.12c-.13,1.85.58,3.75.91,5.63l2.49.42c2.27-5,4.85-9.86,6.77-15,4.85-13,4.15-26-1.44-38.6-2.68-6-6-11.79-8.92-17.73-2.6-5.32-5-10.76-7.57-16.09-1.46-3-3.91-5.7-4.56-8.82-1.55-7.44-5.81-15.13.87-22.42,5.13-5.6,4.38-15.89,13.78-17.42V306.92c-4,2.72-8.12,4.61-11,7.71C280,322.19,274.29,330.93,267,338c-8.47,8.23-11.56,19.22-17.08,28.94-1.49,2.62-1.86,6-2.35,9-1.41,8.79-2.71,17.59-3.84,26.41a17.54,17.54,0,0,0,.37,6.89c3,10.64,6.08,21.29,9.55,31.79,4.75,14.37,9.92,28.55,19.46,40.71,3.23,4.11,5.49,9,8.3,13.43a20.81,20.81,0,0,0,2.78,2.94c.78-1.27,2-2.48,2.24-3.84A156.15,156.15,0,0,0,288,478.08c.39-12.23.67-24.47.53-36.7C288.5,436.9,287.1,432.44,286.32,428Z"/><path class="cls-6" d="M326.47,413.61c-8.42-16.85-17.38-33.46-25-50.67-2.44-5.53-1.27-12.65-1.76-19,1,.12,2.48-.16,3,.41,4,4.34,7.76,8.92,11.75,13.28,2.84,3.11,5.93,6,8.91,9a6.22,6.22,0,0,0,.76,1.8c11.13,12.55,22.37,25,33.42,37.61,9.51,10.85,18.81,21.89,28.21,32.84,2.52,2.93,5.1,5.8,7.65,8.7l1.6-.36c.75-5.14,2.28-10.3,2.09-15.4-.49-12.58-1.71-25.13-2.8-37.68a9.24,9.24,0,0,0-1.94-4.35c-7.75-10.37-16.09-20.43-16.14-34.4l-.66-16,3.32,1.44.17,0,1,1v.17q5.15,5.41,10.29,10.86l.59.67,2.4,3.07-.05-.08,1.13,1-.07-.05,1.54,1.4.11.24,8.34,10.74,5.08,6.91c.24.77.25,1.76.75,2.27,8.53,8.79,17,17.64,25.77,26.2,3.16,3.09,7,5.47,10.53,8.17-1.1.66-2.19,1.87-3.3,1.88a59.63,59.63,0,0,1-7.72-.88l-23-4.67-.57,1.41L433.64,449c-6.92,5.9-13.87,11.72-20.68,17.71-1.61,1.41-4.92,2.45-2.5,5.77v10c-2.46-1.81-4.72-3.47-7-5.14l-1,0,0,0c-2.53-2.36-4.85-5-7.61-7-9-6.65-17.08-14.72-28.21-18.1-1-.29-1.93-2-2.09-3.14-.57-4.08-.46-8.27-1.2-12.31a152.67,152.67,0,0,0-4.08-17.31c-1.88-6.08-4.48-6.79-9.79-3.56-3.68,2.24-7.42,4.36-11.14,6.53Z"/><path class="cls-7" d="M269.58,240.54c-5.87-5.14-5.67-7.61.82-12.17,7.56-5.3,16-9.79,22.37-16.25,8.91-9,14.21-20.52,17.72-32.76,1.73-6,3.31-12.17,5.71-18,.91-2.18,3.72-3.93,6.05-5.09,11.49-5.69,23.57-5.26,35.42-1.82a50.54,50.54,0,0,1,15.77,8c8.46,6.36,16.84,13.14,18.54,24.77,1.07,7.32,2.41,14.6,3.45,21.93.21,1.49-.38,3.1-.7,5.39l-4.15-3.25-1.08-2-.16-.15.21.11L393,234.44q.44,14.48.86,28.95l-.2,3.95.73,2.07a3.94,3.94,0,0,1,0,.84q-1.2,7-2.41,14l-3.21,25.22c-.18,1.28-.35,2.57-.53,3.85-.31,1.59-.62,3.18-.92,4.77-1.77-.8-1.65-1.09-1.56-3.91.22-6.36.19-12.73.27-19.1a1.09,1.09,0,0,1,.58-.17c.61-1.13,1.76-2.25,1.77-3.38.12-13.31.28-26.62-.06-39.93-.09-3.43-1.85-6.82-2.85-10.22-.8-4.67-1.65-9.32-2.38-14s-3.38-6.59-7.88-6.12c-2.27.23-4.5.74-6.75,1.12l-1,.17-3,.81-13,4.59c0-.9-.09-1.71-.13-2.52.53-3.83,3.49-4.52,6.55-4.94,7.29-1,14.6-1.94,22.74-3-2.56-6.92-5.26-14.21-7.95-21.51a.33.33,0,0,0-.07-.56l-2-4.35a.5.5,0,0,0-.09-.68l-1.38-3.91c-2.78-8.16-6.67-15.27-16.37-16.5-2.94-.37-6-.16-8.88-.59-1.36-.2-2.59-1.29-4.44-2.27L336.22,170l-3.15-5.46-1.53-.22-5.89,21.1c-6.11,11-12.23,21.9-18.26,32.72,3.84.83,8.48,2,13.19,2.79,3.94.63,5.57,2.57,4.91,6.46l-17.6-5.27c-3.2-1.39-5.81-.68-8.61,1.49a113.49,113.49,0,0,1-13.48,9c-3.85,2.18-7.39,4.09-6.13,9.52l-2.85-4.82Z"/><path class="cls-3" d="M330.51,671.36l-1.05,0c-1.93-.4-3.89-1.28-5.77-1.12-8.51.72-17.15,5-24.56-3.87-5.77-7-13.62-12.26-18.95-19.47-5.64-7.63-9.23-16.74-14-25-2.17-3.74-5.1-7-7.68-10.51a13.41,13.41,0,0,0-.56-3.35q-16-34.59-32-69.13c-1.11-2.4-1.87-5-2.8-7.43l7.39-3.09c6.09,11.51,12.14,23,18.29,34.51,1.39,2.6,3.11,5,4.68,7.53,5.12,10.22,10.37,20.37,15.34,30.67,7.68,15.92,19.35,28.3,33.67,38.32,5.93,4.14,12.09,8,18.14,11.92-2.14,2.68-1.2,4.77,1.2,6.66,3.06,2.41,6,5,9.15,7.29,1.24.92,2.9,2.13,4.22,2,6.32-.73,8.14,2.74,8.3,8.1Z"/><path class="cls-8" d="M480.16,446.36c11.86,20,23.67,40,35.61,59.94a91.93,91.93,0,0,0,6,7.91l-25.12,4,1.05-1.83c4.66-1.92,7.47-5.09,7.11-11.13-6.41,1.75-11,5.78-15.5,9.94l-1.79,1.12-1.08.95,0,0-1,1,0,0a1.1,1.1,0,0,0-.88.32l-1,.88-2,.89-.07.05a5.11,5.11,0,0,1-.86-.13c-1.51-9.26-2.9-18.54-4.62-27.77a39.93,39.93,0,0,0-3.2-10.36c-5.23-10.67-10.82-21.16-16.27-31.72,4.25-1.63,8.38-3.86,12.78-4.7C472.72,445,476.51,446.06,480.16,446.36Z"/><path class="cls-9" d="M230.49,528.34l-7.39,3.09c-4.38-10.21-8.79-20.41-13.11-30.65a3.9,3.9,0,0,1-.05-2.87c6.44-13.09,2.6-26.83,2.33-40.27-.27-13.74-1.34-27.5-2.62-41.2-.76-8.19,1.95-14.89,6.6-21.19a36.2,36.2,0,0,1,1.17,5.56c.78,14.87,1.17,29.77,2.24,44.62.91,12.67,2.57,25.28,3.9,37.92.22,4.44,1.09,9,.52,13.31-1.4,10.52-1,20.46,5.66,29.35A7.77,7.77,0,0,1,230.49,528.34Z"/><path class="cls-2" d="M435.47,414.35a59.63,59.63,0,0,0,7.72.88c1.11,0,2.2-1.22,3.3-1.88,4.14-4,5.7-4,10.22-.48.88.68,2.56.31,3.86.43l2.93,5c-1.76,1.34-3.34,3.44-5.3,3.88-7.54,1.7-11.59,8.84-8.71,16.15v1l1,2h0a9.56,9.56,0,0,0,.51,2.89c8.92,16.67,5.17,34.47,4.65,52a39.75,39.75,0,0,1-1.13,6.13l-7-6-2-1.94-2.16-1.47c.71-.94,2-1.87,2-2.8,0-7.13.25-14.3-.41-21.37-1.64-17.35-7-33.68-14.49-49.36l5.29-1.6C435.66,416.61,435.56,415.48,435.47,414.35Z"/><path class="cls-10" d="M223.56,483.35c-1.33-12.64-3-25.25-3.9-37.92-1.07-14.85-1.46-29.75-2.24-44.62a36.2,36.2,0,0,0-1.17-5.56c.51-6.26,4-10.52,9.16-13.69q-.53,9.4-1,18.81c-2.12,6.58-.81,12.85,1.73,20,.32-2.61.53-4.29.63-5.18,1.5,7.75,2.79,16.2,4.82,24.48,1.95,8,4.66,15.79,7,23.67-4.21-.41-7.23,1.57-6.88,5.67C232.3,475.93,226.41,478.66,223.56,483.35Z"/><path class="cls-10" d="M460.57,413.3c-1.3-.12-3,.25-3.86-.43-4.52-3.49-6.08-3.52-10.22.48-3.53-2.7-7.37-5.08-10.53-8.17-8.75-8.56-17.24-17.41-25.77-26.2-.5-.51-.51-1.5-.75-2.27a10.68,10.68,0,0,1,1.9.55,36.59,36.59,0,0,0,26.14,2.67c1.33-.34,3.85.44,4.5,1.51C448.34,392,454.42,402.65,460.57,413.3Z"/><path class="cls-11" d="M531.54,534.34a32.51,32.51,0,0,0,2.5,2.35c6.26,4.79,9,11,7.56,18.85-.71,3.81,1.42,6.14,3.74,8.5-2.68,1.08-5.68,3.51-8,3-5.6-1.3-8.3,1.5-10.9,5.35l-20.07-17.94,4.22-3,1-1a74.25,74.25,0,0,0,9.68-.25c1.52-.22,2.84-1.79,4.25-2.75l2.08-3.15c.11-.08.33-.17.33-.23a3.89,3.89,0,0,0-.23-.68l-.17-1.26a38.69,38.69,0,0,1-4.46-1.84,31.47,31.47,0,0,1-3.57-2.69l5.07-.1c2.89,1,5.92,2.36,6.84-2.36A2,2,0,0,1,531.54,534.34Z"/><path class="cls-9" d="M473.45,635.5c-1.75-1.43-3.28-3.58-5.28-4.17-10.82-3.22-21.76-6.05-32.66-9l-.27-1.51,9.87-7.55,42.36,8.18c-.44,1.17-1,2.32-1.28,3.53a14.87,14.87,0,0,0-1,4.65c.19,2.89.83,5.76,1.28,8.63l-1.05.22-12-2.14.08.09A7,7,0,0,1,473.45,635.5Z"/><path class="cls-4" d="M548.44,624.35c-1.05,1-1.94,2.42-3.18,2.82-9.89,3.26-19.85,6.33-29.79,9.45-.73-2.51-1.45-5-2.2-7.6.37-1.71.8-3.69,1.22-5.66,1.48-.66,2.94-1.38,4.45-2,9.95-4,20.16-7.59,27.53-16l6.44-1.87Z"/><path class="cls-11" d="M449.49,438.34c-2.88-7.31,1.17-14.45,8.71-16.15,2-.44,3.54-2.54,5.3-3.88q8.34,14,16.66,28.05c-3.65-.3-7.44-1.37-10.91-.72-4.4.84-8.53,3.07-12.77,4.7l-6-9h0l-1-2v0C449.5,439,449.49,438.67,449.49,438.34Z"/><path class="cls-12" d="M531.54,534.34a2,2,0,0,0-.13.81l-6.84,2.36-5.07.1-12.92,2.75-8.09,1q-2-3.51-4-7l4.66-3.08H495.5c1.47-4.07.92-7.11-4-7.93,1.7-1.71,3.41-3.41,5.12-5.12l25.12-4c2.73-.1,4.27.93,3.74,3.94-3.19,1.86-6.29,3.91-9.6,5.52-4.93,2.41-10,4.51-15,6.74l.61,1,29.07-1.23C530.85,531.59,531.19,533,531.54,534.34Z"/><path class="cls-2" d="M526.46,572.36c2.6-3.85,5.3-6.65,10.9-5.35,2.3.54,5.3-1.89,8-3l14.13,13.3-1.07,2-.72,3.36c-.12.54-.23,1.07-.35,1.6a62.57,62.57,0,0,1-5.63,4.82c-1.37.93-3.72,2.26-4.65,1.72C538.92,586.16,531.43,580.62,526.46,572.36Z"/><path class="cls-13" d="M258.48,611.34c2.58,3.49,5.51,6.77,7.68,10.51,4.79,8.28,8.38,17.39,14,25,5.33,7.21,13.18,12.52,18.95,19.47,7.41,8.91,16.05,4.59,24.56,3.87,1.88-.16,3.84.72,5.77,1.12-7.68,1.72-15.31,3.68-23,5-1.93.33-4.34-1.2-6.3-2.29a31.39,31.39,0,0,1-4.57-3.72c-3.24-3.06-6.19-6.53-9.79-9.1-10.12-7.26-14.89-17.88-19.17-28.92-2.22-5.72-4.62-11.37-7-17-.32-.76-1.24-1.26-1.89-1.88C257.93,612.71,258.2,612,258.48,611.34Z"/><path class="cls-3" d="M514.49,623.36c-.42,2-.85,3.95-1.22,5.66.75,2.59,1.47,5.09,2.2,7.6-7.37,3.22-14.83,5.93-23.07,3.73l-4.84-1.41-1.06-.7c-.45-2.87-1.09-5.74-1.28-8.63a14.87,14.87,0,0,1,1-4.65c.33-1.21.84-2.36,1.28-3.53C496.46,622.24,505.15,627.29,514.49,623.36Z"/><path class="cls-14" d="M394.39,269.41l-.73-2.07c.07-1.32.14-2.64.2-3.95q-.42-14.47-.86-28.95l2,0c.4,2.67.81,5.33,1.21,8l.51,1.09,1.7-2.48a.64.64,0,0,0,.09-.54c.26-1.54.53-3.09.81-4.73,5-.18,7.11,2.67,8.78,6.19q-.78,10.32-1.55,20.63l-2.07.91c0-2.39,0-4.79,0-7.18,1.77-1.73,2.93-9.77,1.43-11.14a3.32,3.32,0,0,0-2.66-.53c-5.33,1.38-8.89,9.25-6.76,14.71l.91,8Z"/><path class="cls-6" d="M530.51,530.22l-29.07,1.23-.61-1c5-2.23,10.11-4.33,15-6.74,3.31-1.61,6.41-3.66,9.6-5.52C530.08,520.94,530.82,525.36,530.51,530.22Z"/><path class="cls-12" d="M392,284.21q1.2-7,2.41-14v10.17l8-10.12q.18.17.36.36C399.4,275.34,398.93,282.34,392,284.21Z"/><path class="cls-15" d="M390.37,352.77q-5.14-5.43-10.29-10.86C386.46,342.68,390.58,347,390.37,352.77Z"/><path class="cls-15" d="M404.36,369.8,396,359.06c1.34.14,3.52-.18,3.88.48C401.65,362.82,402.92,366.35,404.36,369.8Z"/><path class="cls-12" d="M404.5,263.48l2.07-.91c-1.27,2.7-2.53,5.39-3.78,8.09q-.18-.2-.36-.36c.37-1.95.73-3.89,1.1-5.84Z"/><path class="cls-15" d="M487.56,638.94l4.84,1.41Z"/><path class="cls-15" d="M393.36,356.51l-2.4-3.07Z"/><path class="cls-15" d="M388.27,313.28c.18-1.28.35-2.57.53-3.85C388.62,310.71,388.45,312,388.27,313.28Z"/><path class="cls-15" d="M395.91,358.82l-1.54-1.4Z"/><path class="cls-15" d="M380.09,341.74l-1-1Z"/><path class="cls-15" d="M394.44,357.47l-1.13-1Z"/><path class="cls-4" d="M343.48,675.31c-.16-5.36-2-8.83-8.3-8.1-1.32.16-3-1.05-4.22-2-3.13-2.33-6.09-4.88-9.15-7.29-2.4-1.89-3.34-4-1.2-6.66l8.82,2.1A9.69,9.69,0,0,0,331.9,655c17.15,4.6,34.71,4.21,52.22,4.22a65.43,65.43,0,0,0,7.36-.8c2,4.74,6.19,4.07,10.06,3.74,5.24-.46,10.45-1.36,15.69-1.7a6.27,6.27,0,0,1,7.08,6.13c.27,6.23-.49,12.51-.82,18.77-15.7-.33-31.5.26-47.07-1.33-10.35-1.06-20.39-5.23-30.56-8C345.06,675.77,344.27,675.53,343.48,675.31Z"/><path class="cls-2" d="M391.48,658.38a65.43,65.43,0,0,1-7.36.8c-17.51,0-35.07.38-52.22-4.22a9.69,9.69,0,0,1-2.47-1.57c3.26-3.37,6.61-4.19,9.26-.89,4-1.54,7.32-3.48,10.84-4,7.15-1.11,14.45-1.2,21.62-2.2,12-1.68,23.67-4.61,33.11-12.9,1.44-1.27,2.18-3.35,3.24-5l14,5c5.12,3.07,10.36,6,15.32,9.26,4.08,2.71,4,6.8-.6,8.19a233,233,0,0,1-26.88,6.42C403.5,658.25,397.44,658,391.48,658.38Z"/><path class="cls-16" d="M421.49,633.33l-14-5c-7.66-2.94-15.15-7.6-23-8.36-8.67-.83-15.19-4.77-22.18-8.67-3.84-2.15-7.83-4-11.76-6h0l-2-2c-4.16-4.64-8.38-9.25-12.48-13.94-2.8-3.21-5.65-5.74-10.67-1.58.34-4.36.6-7.65.91-11.53l-6.77,4.1h0c.74-2.51,1.47-5,2.21-7.53l-1.57-1,7.35-2.47,1.79,2.95c.08.72.16,1.43.23,2.15l.82.9,9.23,11.88,2,2.11c3,2.5,5.66,5.92,9.12,7.32,8.43,3.4,17.28,5.76,25.85,8.82,1.6.57,2.72,2.44,4.07,3.71,1.1,5.69,5.35,5.38,9.61,5l10.32-.87,4,0,2.78,1.11,28,6.31.27,1.52c-1.05.68-2.08,1.89-3.16,1.93C426.3,624.49,423.46,628.34,421.49,633.33Z"/><path class="cls-15" d="M473.45,635.5a7,7,0,0,0,.07.91,3.92,3.92,0,0,1-.34-.64S473.35,635.59,473.45,635.5Z"/><path class="cls-2" d="M403.49,477.34c2.25,1.67,4.51,3.33,7,5.14v-10a20.42,20.42,0,0,0,3-1.62c7.38-5.8,14.71-11.66,22.05-17.49l2.76,4.95q1.29,13.86,2.58,27.73c.22,2.28.51,4.56.77,6.84-.09,1.86-.17,3.73-.26,5.59a37.42,37.42,0,0,0-1.88-3.47,23.17,23.17,0,0,0-2.19-2.47c-4.62.47-1.9,5.48-4.47,7.22-1.74-.31-.91-5.15-4.35-2.47l-3,1c-4.35,4.25-4.34,9.3,0,13.15v0l0,1.15,2,2.92,3.76,2.43c.15-3,.25-4.91.35-6.82l2.94,1.25c.65-.18,1.81-.27,1.86-.56a35.88,35.88,0,0,0,.26-4.41c.59,1.31,1.21,2.61,1.77,3.94.45,1,.82,2.14,1.23,3.21-1.44,3.49-2.15,6.71,2.85,7.87l3.76-.84c5.29-2,6.06-3.69,4.95-11.08l3.28-1c-.32,3.6-.25,7.29-1.05,10.78-2,9-4,18-6.95,26.69-1.73,5.12-5.23,9.33-11.82,9.69-4.08.22-8.1,1.77-12.14,2.72,1.76,4.42-.46,10.29,4.89,13.38,2.77,1.6,5.6,3.1,8.38,4.68.82.46,2.27,1,2.27,1.55,0,4.68,2.77,5.56,6.74,5.79,1.55.09,3,1.92,4.51,2.87s3.09,2.45,4.7,2.54c9.74.58,19.51.86,29.27,1.12,1.08,0,2.66-.33,3.19-1.08,3.48-5,8.64-4.91,13.8-4.82,2.87,0,4.46-1,4.25-4l27,9c-2.81,1.66-5.52,3.52-8.45,4.94-5.78,2.81-11.68,5.38-17.55,8a3.82,3.82,0,0,1-1.48.05c-14.6,0-29.21,0-43.81-.05a8.5,8.5,0,0,1-4.18-1.07c-4.81-2.83-7.4-2.38-10.63,2.16-1.92-3.41-3.35-7.25-5.85-10.17a173,173,0,0,0-17.07-18c-6.2-5.43-10.78-13.94-21-13.05l-.94-.07-4-.15c.31-.82.63-1.64.8-2.07-14.45-1.21-28.75-2.21-43-3.65-9.64-1-19.22-2.54-28.83-3.84l-8.14-15.08c2.32-11.64,1.78-23.29.23-34.95.59-2.43,1.17-4.85,1.76-7.27q2.26-7.87,4.52-15.75a33.75,33.75,0,0,1,3.6,2.09,35.24,35.24,0,0,1,3.05,2.82l.41-.62-5.57-10.51q1.65-11.91,3.29-23.8c.32-4.25,1.22-8.56.81-12.74-.5-5.09,1.65-7.73,6-9.31,2.93,3.33,5.75,6.76,8.83,9.95.93,1,2.58,1.21,3.89,1.79.12-1.71,1-3.86.23-5.07-2-3.36-4.67-6.34-7.07-9.47,2.65-1.68,5.29-3.37,7.95-5,2.46-1.54,4.48-1.29,5.51,1.67,1.63,4.66,3.62,9.28,4.57,14.09,1.18,6,1.3,12.15,2.22,18.19a5.83,5.83,0,0,0,2.79,3.82c7.53,3.61,15.3,6.72,22.8,10.39,5.27,2.59,10.22,5.82,15.31,8.76l0,0Zm-69,12,.73,1.07-.75-1.06-1.87-2.81-1,1.25C332.55,488.3,333.52,488.82,334.5,489.33Zm45.06,48.92c3.31.78,6.68,1.86,9-2,6.77.26,11.65-3.25,16-7.92,4.76-.16,8-2.64,7.95-6.87a6.2,6.2,0,0,0-2.69-4.62c-1-.54-4,.52-4.48,1.59-1.29,2.88-1.72,6.14-2.49,9.25l-5.69,4.54-1-1.29c3-11.31.19-22.71-6.28-25.3,8.48,12.79,8.13,25-1.17,30.7l-13.07-4c-1.9-3.36-4-.36-5.74.12s-4,2.44-4,3.74c0,1.52,2,3.52,3.55,4.46C373.28,543,376.41,540.24,379.56,538.25ZM354,515.5l1.43-1.33-8.7-9.85-1.28,1.16Zm2.51,1.2c-.24.14-.61.24-.66.42s.16.5.26.76l.91-.57Z"/><path class="cls-7" d="M286.32,428c.78,4.47,2.18,8.93,2.24,13.41.14,12.23-.14,24.47-.53,36.7a156.15,156.15,0,0,1-1.63,16.27c-.19,1.36-1.46,2.57-2.24,3.84a20.81,20.81,0,0,1-2.78-2.94c-2.81-4.45-5.07-9.32-8.3-13.43-9.54-12.16-14.71-26.34-19.46-40.71-3.47-10.5-6.52-21.15-9.55-31.79a17.54,17.54,0,0,1-.37-6.89c1.13-8.82,2.43-17.62,3.84-26.41.49-3.07.86-6.42,2.35-9,5.52-9.72,8.61-20.71,17.08-28.94,7.32-7.11,13-15.85,19.95-23.41,2.85-3.1,7-5,11-7.71V319.6c-9.4,1.53-8.65,11.82-13.78,17.42-6.68,7.29-2.42,15-.87,22.42.65,3.12,3.1,5.84,4.56,8.82,2.59,5.33,5,10.77,7.57,16.09,2.91,5.94,6.24,11.69,8.92,17.73,5.59,12.62,6.29,25.59,1.44,38.6-1.92,5.12-4.5,10-6.77,15l-2.49-.42c-.33-1.88-1-3.78-.91-5.63A33.34,33.34,0,0,0,291,430.49a23.43,23.43,0,0,0-2.87-3.39Z"/><path class="cls-12" d="M379.56,300.56l-4.14,5.57c-.29.08-.59.16-.89.22a61.36,61.36,0,0,0-5.17,3.7c-10.05,8.72-20.45,16.6-34.87,15.46a9.42,9.42,0,0,1-2.46-.3c-10.55-4.18-20.1-9.85-27.9-18.29-1.44-1.54-3.66-2.35-5.53-3.5l-.85-.89c.06-1,.59-2.45.11-3A38.84,38.84,0,0,1,288,275.3q-.54-11.88-.31-23.79c.07-3.33,2-4.94,5.71-3.75s7.37,1.72,11.06,2.55c7.09,1.83,13.67.19,20-3,.81-.09,1.82.09,2.4-.33,5.29-3.82,10.86-2.85,16.52-1.19,5.35,1.56,10.72,3,16.08,4.55l17,0,9.78-2q.49,5.53,1,11.08,0,7,0,14L387,287.28Zm-53.16-2.08,1,.91v.11c1.6,4.73,5.57,5.76,9.79,5.83,4.45.07,8.53-1.07,10.41-5.83l0-.1,1.19-1.65c.91-1.09,1.82-2.19,2.74-3.28l6.17-5.38c-7.76-.48-14.34-1.1-20.92-1.24-4.91-.09-9.84.43-14.75.77a7.69,7.69,0,0,0-.22,1.67l3.5,6.32,1,1.79Zm22-31c-7.22,5.58-14.27,5.16-21.95.54.49,2.53,1.25,5.44,2.85,6a27.55,27.55,0,0,0,15.18,1.44C349.48,274.45,350.42,273.52,348.37,267.49Z"/><path class="cls-8" d="M317.38,538.3l8.14,15.08c.57,1.71,1.48,3.4,1.64,5.15.32,3.59.23,7.21.31,10.81l-7.35,2.47,1.57,1c-.74,2.51-1.47,5-2.21,7.53l-1,2-.25.4.23-.42,1-2,6.77-4.1c-.31,3.88-.57,7.17-.91,11.53,5-4.16,7.87-1.63,10.67,1.58,4.1,4.69,8.32,9.3,12.48,13.94l2,2h0l8.51,8.49c-8-1.08-14.81-1.56-21.42-3-5.52-1.23-10.79-3.6-16.17-5.46-6.41-2.22-14.52-2.72-18.85-7-6.92-6.86-17.6-10.6-20.16-21.69-.43-1.85-2.76-3.22-4.08-4.91a38.36,38.36,0,0,1-4.22-6c-1.75-3.49-2.76-7.38-4.72-10.73-2.47-4.22-2.68-15.87-.14-20a15.2,15.2,0,0,0,2.11-6.28c.35-3.46.11-7,.13-10.48l6,5.16c2.19,2.24,4.23,4.66,6.61,6.69,9.24,7.88,16.64,16.91,19.55,29.06,1.28,5.31,2.9,10.54,4.36,15.8l1.23-.12c.41-2.53.81-5.06,1.22-7.59Z"/><path class="cls-14" d="M304.47,250.31c-3.69-.83-7.46-1.42-11.06-2.55s-5.64.42-5.71,3.75q-.22,11.89.31,23.79a38.84,38.84,0,0,0,9.85,24.22c.48.56-.05,2-.11,3a35.28,35.28,0,0,1-10.26-18.21c-.53-2.06-1-4.15-1.6-6.18-1.06-3.44-1.43-7.52-6.37-7.83l0-10,2.69.31,1.29-1.1-6-10.14v0l-1-1h0a37.65,37.65,0,0,0-3.82-3.86c-.28-.22-1.79.64-2.29,1.32-2,2.77-.76,10.75,2,13.45l.06,5.11-1.95-1c-2.84-7.52-3.53-15.12-.92-22.86l7.24-3.3,2.85,4.82c-1.26-5.43,2.28-7.34,6.13-9.52a113.49,113.49,0,0,0,13.48-9c2.8-2.17,5.41-2.88,8.61-1.49l-2.25.66c3.35,1,6.65,1.93,9.8,3.16,1.15.44,2,1.73,2.93,2.63l-3.91,1.83h0l-3.07-2c-2,0-4,.13-5.94,0-3.27-.28-5.91.37-7,3.9l-2.72,2.49c.55,5.32,4.85,6.25,8.84,7.54Z"/><path class="cls-17" d="M298.6,303.42c1.87,1.15,4.09,2,5.53,3.5,7.8,8.44,17.35,14.11,27.9,18.29a9.42,9.42,0,0,0,2.46.3c-1.15.61-2.25,1.59-3.47,1.78-6.73,1.08-10.26,5.27-11.75,11.82-.83,3.65-3.75,6.83-5.73,10.22a49,49,0,0,1-12.06-21.27,11.19,11.19,0,0,0-1.62-2.63c-.06-5.44,0-10.88-.22-16.31A39,39,0,0,0,298.6,303.42Z"/><path class="cls-10" d="M310.45,567.23c-.41,2.53-.81,5.06-1.22,7.59l-1.23.12c-1.46-5.26-3.08-10.49-4.36-15.8C300.73,547,293.33,538,284.09,530.08c-2.38-2-4.42-4.45-6.61-6.69.87-2.34,1.73-4.67,2.6-7,5.24,5.21,10.77,10.17,15.64,15.71,7.73,8.78,9.69,20.12,12.7,30.95A25.15,25.15,0,0,0,310.45,567.23Z"/><path class="cls-1" d="M280.08,516.39c-.87,2.33-1.73,4.66-2.6,7l-6-5.16-17-23.88-3-4.05-4-7-3-8,3.94-2q13.41,19,26.8,38L273.91,513l4,2.25Z"/><path class="cls-9" d="M248.43,473.36l-3.94,2-5.91-12c-2.37-7.88-5.08-15.68-7-23.67-2-8.28-3.32-16.73-4.82-24.48-.1.89-.31,2.57-.63,5.18-2.54-7.11-3.85-13.38-1.73-20,5.3,17.94,10.39,35.95,16,53.81C242.44,460.76,245.71,467,248.43,473.36Z"/><path class="cls-18" d="M299.86,325.43a11.19,11.19,0,0,1,1.62,2.63,49,49,0,0,0,12.06,21.27l12.17,11.8q-1.14,2.73-2.3,5.45c-3-3-6.07-5.88-8.91-9-4-4.36-7.74-8.94-11.75-13.28-.53-.57-2-.29-3-.41Z"/><path class="cls-19" d="M341.36,425.46c2.4,3.13,5.06,6.11,7.07,9.47.73,1.21-.11,3.36-.23,5.07-1.31-.58-3-.84-3.89-1.79-3.08-3.19-5.9-6.62-8.83-9.95l-6.11-3.08q-1.46-5.79-2.9-11.57l11.92,8.83Z"/><path class="cls-18" d="M279.52,270.31c4.94.31,5.31,4.39,6.37,7.83.63,2,1.07,4.12,1.6,6.18-5.46-.07-8.46-3.15-10.49-7.95-1.88-4.45-4.31-8.66-6.5-13l1.95,1Z"/><path class="cls-20" d="M395,234.41l-2,0-3.45-25.13-.05,0,1.08,2Z"/><path class="cls-4" d="M319.37,496.08c-.59,2.42-1.17,4.84-1.76,7.27q-3.11-8.43-6.2-16.85l.52-.6Z"/><path class="cls-13" d="M329.37,425.18l6.11,3.08c-4.35,1.58-6.5,4.22-6,9.31.41,4.18-.49,8.49-.81,12.74Q329,437.74,329.37,425.18Z"/><path class="cls-4" d="M325.38,474.11,331,484.62l-.41.62a35.24,35.24,0,0,0-3.05-2.82,33.75,33.75,0,0,0-3.6-2.09C324.39,478.25,324.88,476.18,325.38,474.11Z"/><path class="cls-10" d="M277.94,515.2l-4-2.25,1.32-1.57Z"/><path class="cls-20" d="M396.74,243.5l-.51-1.09Z"/><path class="cls-20" d="M398.53,240.48a.64.64,0,0,1-.09.54l-.16-.29Z"/><path class="cls-12" d="M323.41,366.58c.77-1.81,1.54-3.63,2.3-5.44,7.8,2.1,15.38,5.53,23.79,4.06,5.68-1.66,11.43-3.12,17-5.08,3.4-1.19,6.52-3.16,9.76-4.78.05,14,8.39,24,16.14,34.4a9.24,9.24,0,0,1,1.94,4.35c1.09,12.55,2.31,25.1,2.8,37.68.19,5.1-1.34,10.26-2.09,15.4l-1.6.36c-2.55-2.9-5.13-5.77-7.65-8.7-9.4-10.95-18.7-22-28.21-32.84-11-12.61-22.29-25.06-33.42-37.61A6.22,6.22,0,0,1,323.41,366.58Z"/><path class="cls-20" d="M376.26,355.34c-3.24,1.62-6.36,3.59-9.76,4.78-5.57,2-11.32,3.42-17,5.08.81-5.87,1.51-11.77,2.54-17.61.17-1,1.7-2.11,2.8-2.39,4.28-1.1,6.4-3.72,6.92-8.05.15-1.21,1.38-2.25,1.88-3.47,1.35-3.25,3-6.47,3.75-9.87,1.28-5.68,1.45-11.77,8-14.47q.12,15,.22,30Z"/><path class="cls-16" d="M341.36,425.46l-3-3c3.72-2.17,7.46-4.29,11.14-6.53,5.31-3.23,7.91-2.52,9.79,3.56a152.67,152.67,0,0,1,4.08,17.31c.74,4,.63,8.23,1.2,12.31.16,1.15,1.13,2.85,2.09,3.14,11.13,3.38,19.22,11.45,28.21,18.1,2.76,2,5.08,4.65,7.61,7-5.09-2.94-10-6.17-15.31-8.76-7.5-3.67-15.27-6.78-22.8-10.39a5.83,5.83,0,0,1-2.79-3.82c-.92-6-1-12.21-2.22-18.19-.95-4.81-2.94-9.43-4.57-14.09-1-3-3.05-3.21-5.51-1.67C346.65,422.09,344,423.78,341.36,425.46Z"/><path class="cls-1" d="M435.5,453.35c-7.34,5.83-14.67,11.69-22.05,17.49a20.42,20.42,0,0,1-3,1.62c-2.42-3.32.89-4.36,2.5-5.77,6.81-6,13.76-11.81,20.68-17.71l-21.71-37.89.57-1.41,23,4.67c.09,1.13.19,2.26.28,3.39l-5.29,1.6c-2.35-2.54-2.91-8.76-8.7-4.26-.18,1.14-.87,2.53-.45,3.36,2.17,4.25,4.58,8.38,7,12.51,1.27,2.17,2.7,4.26,4.06,6.38a.67.67,0,0,1,.2.74Z"/><path class="cls-16" d="M403.49,477.34l-1,0Z"/><path class="cls-18" d="M359.48,250.35c-5.36-1.52-10.73-3-16.08-4.55-5.66-1.66-11.23-2.63-16.52,1.19-.58.42-1.59.24-2.4.33a8.21,8.21,0,0,1,.94-2.2c2.91-3.57,3-14.06.07-17.77.66-3.89-1-5.83-4.91-6.46-4.71-.75-9.35-2-13.19-2.79,6-10.82,12.15-21.77,18.26-32.72-1.22,4.26-2,8.71-3.76,12.72-2.11,4.77-1,7.22,4.22,7.23,12.16,0,24.32,0,36.47,0a10.58,10.58,0,0,0,10.1-9.39c2.69,7.3,5.39,14.59,7.95,21.51-8.14,1.08-15.45,2-22.74,3-3.06.42-6,1.11-6.55,4.94-1.47,5.12-2.27,10,3.55,13.23.79.44,1.07,1.8,1.58,2.74-.29.64-.58,1.28-.88,1.92l-1.26.56,3.38,1.41,3.79.13Z"/><path class="cls-21" d="M372.68,195.93a10.58,10.58,0,0,1-10.1,9.39c-12.15.06-24.31,0-36.47,0-5.24,0-6.33-2.46-4.22-7.23,1.78-4,2.54-8.46,3.76-12.72l5.89-21.1,1.53.22,3.15,5.46,3.22-2.89c1.85,1,3.08,2.07,4.44,2.27,2.92.43,5.94.22,8.88.59,9.7,1.23,13.59,8.34,16.37,16.5l1.38,3.91a.5.5,0,0,1,.09.68l2,4.35A.33.33,0,0,1,372.68,195.93Z"/><path class="cls-14" d="M386.29,248.28l-9.78,2-9.05-5,4.94-1.9c4.07,1.12,7.36-.78,9.28-5.38-.78-.85-1.4-2.13-2.35-2.48-6-2.14-12-1.6-17.81.82a24.82,24.82,0,0,1,2.79-4.19c2-2,2.26-6.77.21-8.82l3-.81,1-.17c2.25-.38,4.48-.89,6.75-1.12,4.5-.47,7.17,1.55,7.88,6.12s1.58,9.32,2.38,14l.7,2.21a.78.78,0,0,0-.35.74Z"/><path class="cls-21" d="M325.49,227.35c2.92,3.71,2.84,14.2-.07,17.77a8.21,8.21,0,0,0-.94,2.2c-6.34,3.18-12.92,4.82-20,3l.12-8.06.72-.26,1.17.67,1.57.49,3.48-.18,9.7-.27.61-2.07-5-4c-.13-.37-.27-.75-.4-1.13l-1.06-1.06v0l-.93-4.09,3.91-1.83c-1-.9-1.78-2.19-2.93-2.63-3.15-1.23-6.45-2.11-9.8-3.16l2.25-.66Z"/><path class="cls-21" d="M364.52,223.33c2.05,2,1.79,6.81-.21,8.82a24.82,24.82,0,0,0-2.79,4.19l0,0-1.93,1,.24,1.06-3.31,2.89c-.51-.94-.79-2.3-1.58-2.74-5.82-3.23-5-8.11-3.55-13.23,0,.81.09,1.62.13,2.52Z"/><path class="cls-18" d="M403.53,264.46c-.37,2-.73,3.89-1.1,5.84l-8,10.12V270.25a3.94,3.94,0,0,0,0-.84l3.07-2.07Z"/><path class="cls-5" d="M386.29,248.28c-.15-1.33-.29-2.66-.44-4a.5.5,0,0,0,.35-.74l-.7-2.21c1,3.4,2.76,6.79,2.85,10.22.34,13.31.18,26.62.06,39.93,0,1.13-1.16,2.25-1.77,3.38l.36-7.59.33-13.94q0-7,0-14Q386.79,253.83,386.29,248.28Z"/><path class="cls-20" d="M387,287.28l-.36,7.59a1.09,1.09,0,0,0-.58.17l-6.5,5.52Z"/><path class="cls-18" d="M370.51,190.34l-1.38-3.91Z"/><path class="cls-18" d="M372.61,195.37l-2-4.35Z"/><path class="cls-20" d="M393.86,263.39c-.06,1.31-.13,2.63-.2,3.95C393.73,266,393.8,264.7,393.86,263.39Z"/><path class="cls-21" d="M368.49,222.35l-1,.17Z"/><polygon class="cls-20" points="389.55 209.31 389.34 209.2 389.5 209.35 389.55 209.31"/><path class="cls-11" d="M254.48,494.35l17,23.88c0,3.5.22,7-.13,10.48a15.2,15.2,0,0,1-2.11,6.28c-2.54,4.11-2.33,15.76.14,20,2,3.35,3,7.24,4.72,10.73a38.36,38.36,0,0,0,4.22,6c1.32,1.69,3.65,3.06,4.08,4.91,2.56,11.09,13.24,14.83,20.16,21.69,4.33,4.3,12.44,4.8,18.85,7,5.38,1.86,10.65,4.23,16.17,5.46,6.61,1.46,13.43,1.94,21.42,3l-8.51-8.49c3.93,2,7.92,3.84,11.76,6,7,3.9,13.51,7.84,22.18,8.67,7.87.76,15.36,5.42,23,8.36-1.06,1.7-1.8,3.78-3.24,5-9.44,8.29-21.09,11.22-33.11,12.9-7.17,1-14.47,1.09-21.62,2.2-3.52.55-6.83,2.49-10.84,4-2.65-3.3-6-2.48-9.26.89l-8.82-2.1c-6.05-4-12.21-7.78-18.14-11.92-14.32-10-26-22.4-33.67-38.32-5-10.3-10.22-20.45-15.34-30.67.21-2.25.95-4.6.52-6.71-1-5.15-2.64-10.19-4-15.29-4-15.53-2.08-31.16-.84-46.8.28-3.52-.56-7.14-.9-10.71-.24-2.53-.51-5.05-.76-7.57l4,7C251.41,492.45,251.27,494.63,254.48,494.35Z"/><path class="cls-2" d="M247.51,483.3c.25,2.52.52,5,.76,7.57.34,3.57,1.18,7.19.9,10.71-1.24,15.64-3.21,31.27.84,46.8,1.33,5.1,2.94,10.14,4,15.29.43,2.11-.31,4.46-.52,6.71-1.57-2.51-3.29-4.93-4.68-7.53-6.15-11.47-12.2-23-18.29-34.51a7.77,7.77,0,0,0-.75-2.33c-6.62-8.89-7.06-18.83-5.66-29.35.57-4.33-.3-8.87-.52-13.31,2.85-4.69,8.74-7.42,8.14-14.38-.35-4.1,2.67-6.08,6.88-5.67l5.91,12C245.5,478,246.5,480.64,247.51,483.3Z"/><path class="cls-16" d="M422.49,559.34c4-1,8.06-2.5,12.14-2.72,6.59-.36,10.09-4.57,11.82-9.69,2.94-8.69,4.9-17.73,6.95-26.69.8-3.49.73-7.18,1.05-10.78q0-3.57.07-7.14a39.75,39.75,0,0,0,1.13-6.13c.52-17.5,4.27-35.3-4.65-52a9.56,9.56,0,0,1-.51-2.89l6,9c5.44,10.56,11,21.05,16.26,31.72a39.93,39.93,0,0,1,3.2,10.36c1.72,9.23,3.11,18.51,4.62,27.77-1.31,1.73-2.63,3.45-3.94,5.17a2.4,2.4,0,0,0-.24.83l-4.85,9.13a2.71,2.71,0,0,0-.2.84l-1.9,3.11-9.11,19.11-.12,1Z"/><path class="cls-21" d="M476.38,526.19a2.4,2.4,0,0,1,.24-.83l4.8-5,.07-.05,2-.89,1-.88a8.42,8.42,0,0,0,0,.87l4,3.94.06.06c-5,4.45-8.23,9.32-3.9,16,0,.65-.09,1.31-.14,2l0,0c-.35.36-.7.71-1,1.07.31,7.26.47,14.48-5.05,20.28a3.53,3.53,0,0,1-.94-.34l-2-1-1-.14-1.38-.72-2.59-.11-3.31-.9-2.71-.16-4.16-1,9.11-19.11c.64-1,1.27-2.07,1.9-3.11a2.71,2.71,0,0,1,.2-.84Z"/><path class="cls-12" d="M489.27,515.2c4.5-4.16,9.09-8.19,15.5-9.94.36,6-2.45,9.21-7.12,11.13l-2.16-.06C494.14,512,491.14,516.67,489.27,515.2Z"/><path class="cls-18" d="M489.27,515.2c1.87,1.47,4.87-3.23,6.22,1.13l-7,7-4-3.94c.29-.39.58-.79.86-1.19l0,0,1-1,0,0,1.08-.95Z"/><path class="cls-21" d="M488.46,523.31l7-7,2.16.06c-.34.61-.69,1.22-1,1.83-1.71,1.71-3.42,3.41-5.12,5.12l-3,0Z"/><path class="cls-12" d="M481.42,520.32l-4.8,5c1.31-1.72,2.63-3.44,3.94-5.17A5.11,5.11,0,0,0,481.42,520.32Z"/><path class="cls-12" d="M483.48,519.38l-2,.89Z"/><path class="cls-12" d="M485.34,518.18c-.28.4-.57.8-.86,1.19a8.42,8.42,0,0,1,0-.87A1.1,1.1,0,0,1,485.34,518.18Z"/><path class="cls-12" d="M486.42,517.25l-1,1C485.72,517.89,486.07,517.57,486.42,517.25Z"/><path class="cls-12" d="M487.48,516.32l-1.08.95Z"/><path class="cls-19" d="M432.56,438.07a.67.67,0,0,0-.2-.74q-5.3-11.13-10.6-22.25c5.79-4.5,6.35,1.72,8.7,4.26,7.46,15.68,12.85,32,14.49,49.36.66,7.07.45,14.24.41,21.37,0,.93-1.32,1.86-2,2.8h-1.72c-.26-2.28-.55-4.56-.77-6.84q-1.3-13.86-2.58-27.73Z"/><path class="cls-22" d="M454.52,502.32q0,3.57-.07,7.14l-3.28,1c-3.16-.7-4.56.85-4.72,3.81-.13,2.42-.16,4.85-.23,7.27l-3.76.84-.18-8.1a3.6,3.6,0,0,0,.31-.85,13.06,13.06,0,0,0,5-13.14,27.46,27.46,0,0,1-.1-4Z"/><path class="cls-8" d="M442.59,513.38a3.6,3.6,0,0,1-.31.85l-2.67.23c-.41-1.07-.78-2.16-1.23-3.21-.56-1.33-1.18-2.63-1.77-3.94.63-1,1.26-1.92,1.9-2.88,4.51,2.1,2.43-1.67,2.85-3.21v-2.76c.09-1.86.17-3.73.26-5.59h1.72l2.16,1.47c0,2.49.11,5,0,7.46a33.81,33.81,0,0,1-.86,6.18A48.77,48.77,0,0,1,442.59,513.38Z"/><path class="cls-1" d="M442.59,513.38a48.77,48.77,0,0,0,2-5.4,33.81,33.81,0,0,0,.86-6.18c.14-2.48,0-5,0-7.46l2,1.94a27.46,27.46,0,0,0,.1,4A13.06,13.06,0,0,1,442.59,513.38Z"/><path class="cls-16" d="M449.49,439.33l1,2Z"/><path class="cls-16" d="M449.49,438.34c0,.33,0,.67,0,1C449.5,439,449.49,438.67,449.49,438.34Z"/><path class="cls-16" d="M531.49,590.33l-27-9-36-12.69.22-1.19,26.74,4.45-6-3.34,1.09-1.51c2.58.42,5.18.75,7.73,1.3s4.86,1.26,7.28,1.91l.38-1-10-5.43,7.6-2.34-8.35-.39c2.6-2.7,3.61-7.38,8.69-7l2.48.28,20.07,17.94c5,8.26,12.46,13.8,20.59,18.49.93.54,3.28-.79,4.65-1.72a62.57,62.57,0,0,0,5.63-4.82q-2.22,9.57-4.42,19.15l-6.44,1.87C546.49,596.73,541.91,592.15,531.49,590.33Z"/><path class="cls-12" d="M527.6,544.31l-2.08,3.15-13.66,1.89-16.31,5.17c0-3,0-6,0-9l9.11-4,22.88.6c.06.42.11.84.17,1.26A1.25,1.25,0,0,0,527.6,544.31Z"/><path class="cls-6" d="M527.53,542.14l-22.88-.6,1.93-1.18,12.92-2.75a31.47,31.47,0,0,0,3.57,2.69A38.69,38.69,0,0,0,527.53,542.14Z"/><path class="cls-6" d="M511.86,549.35l13.66-1.89c-1.41,1-2.73,2.53-4.25,2.75a74.25,74.25,0,0,1-9.68.25l-.08-.1C511.63,550,511.75,549.69,511.86,549.35Z"/><path class="cls-6" d="M524.57,537.51l6.84-2.36C530.49,539.87,527.46,538.5,524.57,537.51Z"/><path class="cls-6" d="M506.39,554.42l-2.48-.28,6.59-2.78.11.07Z"/><path class="cls-6" d="M511.59,550.46l-1,1-.11-.07,1-1Z"/><path class="cls-6" d="M527.6,544.31a1.25,1.25,0,0,1,.1-.91,3.89,3.89,0,0,1,.23.68C527.93,544.14,527.71,544.23,527.6,544.31Z"/><path class="cls-10" d="M531.49,590.33c10.42,1.82,15,6.4,15,15-7.37,8.45-17.58,12-27.53,16-1.51.61-3,1.33-4.45,2-9.34,3.93-18-1.12-27-1.93l-42.36-8.18c.09-3,.19-5.91.28-8.87,3.23-4.54,5.82-5,10.63-2.16a8.5,8.5,0,0,0,4.18,1.07c14.6.08,29.21.05,43.81.05a3.82,3.82,0,0,0,1.48-.05c5.87-2.64,11.77-5.21,17.55-8C526,593.85,528.68,592,531.49,590.33Z"/><path class="cls-23" d="M445.39,604.38c-.09,3-.19,5.92-.28,8.87l-9.87,7.55-28-6.32c.08-.38.16-.75.25-1.12,10.61-.65,20.11-18.86,12.46-26.8s-16.23-15.42-24.39-23.09l1-.53,4,.15.46.15.48-.08c10.23-.89,14.81,7.62,21,13.05a173,173,0,0,1,17.07,18C442,597.13,443.47,601,445.39,604.38Z"/><path class="cls-18" d="M495.54,545.56c0,3,0,6,0,9l-8.28,10-8.84-1.86c5.52-5.8,5.36-13,5.05-20.28l1-1.07,0,0,10-7q2,3.51,4,7l-4.21,3.73-1.87,1.17-.94,1.05-.43.44.47-.4,1.06-.93,2.05-.93A4.74,4.74,0,0,1,495.54,545.56Z"/><path class="cls-18" d="M488.52,523.37l3,0c4.93.82,5.48,3.86,4,7.93l-10.88,8.14C480.29,532.69,483.54,527.82,488.52,523.37Z"/><path class="cls-17" d="M484.62,539.41l10.88-8.14h3.65l-4.66,3.08-10,7C484.53,540.72,484.58,540.06,484.62,539.41Z"/><path class="cls-17" d="M495.54,545.56a4.74,4.74,0,0,0-.92-.06l-.34-.4,4.21-3.73,8.09-1-1.93,1.18Z"/><path class="cls-16" d="M558.4,579.35l-.72,3.36Z"/><path class="cls-23" d="M375.38,309.34c-6.54,2.7-6.71,8.79-8,14.47-.76,3.4-2.4,6.62-3.75,9.87-.5,1.22-1.73,2.26-1.88,3.47-.52,4.33-2.64,7-6.92,8.05-1.1.28-2.63,1.43-2.8,2.39-1,5.84-1.73,11.74-2.54,17.61-8.41,1.47-16-2-23.79-4.06l-12.17-11.81c2-3.39,4.9-6.57,5.73-10.22,1.49-6.55,5-10.74,11.75-11.82,1.22-.19,2.32-1.17,3.47-1.78,14.42,1.14,24.82-6.74,34.87-15.46a61.36,61.36,0,0,1,5.17-3.7l1,1Z"/><path class="cls-20" d="M375.53,307.35l-1-1c.3-.06.6-.14.89-.22C375.46,306.53,375.49,306.94,375.53,307.35Z"/><path class="cls-24" d="M403.53,264.46l-6.07,2.88c-.3-2.67-.61-5.33-.92-8-.09-4.51,1.91-8,4.79-11l1.64.1,1.57,7.82c0,2.39,0,4.79,0,7.18Z"/><path class="cls-17" d="M404.54,256.3,403,248.48l-1.64-.1c-2.88,3-4.88,6.45-4.79,11-2.12-5.46,1.44-13.33,6.77-14.71a3.32,3.32,0,0,1,2.66.53C407.47,246.53,406.31,254.57,404.54,256.3Z"/><path class="cls-12" d="M329.49,574.44c-.07-.72-.15-1.43-.23-2.15.43-9,.43-9,9.44-9h1.5l46.3.16c.67,5.7,1.63,11.38,1.91,17.1.33,6.78.13,13.6.06,20.39,0,3.17.32,5.74,3.89,7.12,2.26.87,4.11,2.76,6.14,4.2l-17.95-3.05c-1.35-1.27-2.47-3.14-4.07-3.71-8.57-3.06-17.42-5.42-25.85-8.82-3.46-1.4-6.11-4.82-9.12-7.32l-2-2.11-9.22-11.88Z"/><path class="cls-18" d="M398.5,612.23c-2-1.44-3.88-3.33-6.14-4.2-3.57-1.38-3.93-3.95-3.89-7.12.07-6.79.27-13.61-.06-20.39-.28-5.72-1.24-11.4-1.91-17.11l9.09.06c8.16,7.67,16.62,15,24.39,23.09s-1.85,26.15-12.46,26.8h-3l-4,0Z"/><path class="cls-25" d="M395.59,563.47l-9.09-.06-46.3-.15h-1.5c-9,0-9,0-9.44,9l-1.79-2.95c-.08-3.6,0-7.22-.31-10.81-.16-1.75-1.07-3.44-1.64-5.15,9.61,1.3,19.19,2.88,28.83,3.84,14.26,1.44,28.56,2.44,43,3.65-.17.43-.49,1.25-.8,2.07Z"/><path class="cls-2" d="M398.5,612.23l2,1.12-10.32.87c-4.26.34-8.51.65-9.61-5Z"/><path class="cls-12" d="M404.49,613.37h3c-.09.37-.17.74-.25,1.12Z"/><path class="cls-25" d="M339.54,587.22l2,2.11Z"/><path class="cls-11" d="M350.53,605.29l-2-2Z"/><path class="cls-25" d="M329.49,574.44l.83.9Z"/><path class="cls-11" d="M478.43,562.68l8.85,1.86,7.94-3.41,8.35.39-7.6,2.34,10,5.43-.38,1c-2.42-.65-4.83-1.39-7.28-1.91s-5.15-.88-7.73-1.3l-1.09,1.51,6,3.34-26.74-4.45-.22,1.19,36,12.69c.21,3.06-1.38,4.09-4.25,4-5.16-.09-10.32-.19-13.8,4.82-.53.75-2.11,1.11-3.19,1.08-9.76-.26-19.53-.54-29.27-1.12-1.61-.09-3.17-1.6-4.7-2.54s-3-2.78-4.51-2.87c-4-.23-6.72-1.11-6.74-5.79,0-.52-1.45-1.09-2.27-1.55-2.78-1.58-5.61-3.08-8.38-4.68-5.35-3.09-3.13-9-4.89-13.38l37.72,0,4.27,0,2.72.16,3.3.9,2.59.11,1.38.72,1,.14,2,1A3.53,3.53,0,0,0,478.43,562.68Z"/><path class="cls-26" d="M388.59,536.33c9.3-5.69,9.65-17.91,1.17-30.7,6.47,2.59,9.3,14,6.28,25.3-.17.69-.34,1.37-.52,2.06l1.56-.77,5.69-4.54,1.71.65c-4.31,4.67-9.19,8.18-16,7.92Z"/><path class="cls-13" d="M379.56,538.25c-3.15,2-6.28,4.7-10.23,2.39-1.6-.94-3.54-2.94-3.55-4.46,0-1.3,2.35-3.27,4-3.74s3.84-3.48,5.74-.12C376.86,534.3,378.21,536.27,379.56,538.25Z"/><path class="cls-13" d="M404.48,528.33l-1.71-.65c.77-3.11,1.2-6.37,2.49-9.25.49-1.07,3.5-2.13,4.48-1.59a6.2,6.2,0,0,1,2.69,4.62C412.44,525.69,409.24,528.17,404.48,528.33Z"/><path class="cls-22" d="M434.49,512.28,431.55,511c-2.47-4.08-.48-7.67,1.26-11.29,2.57-1.74-.15-6.75,4.47-7.22,0,3.12,1.3,8-.14,9C432.52,504.71,435.29,508.77,434.49,512.28Z"/><path class="cls-25" d="M432.81,499.74c-1.74,3.62-3.73,7.21-1.26,11.29-.1,1.91-.2,3.82-.35,6.82l-3.76-2.43,1-18.15C431.9,494.59,431.07,499.43,432.81,499.74Z"/><path class="cls-4" d="M434.49,512.28c.8-3.51-2-7.57,2.65-10.74,1.44-1,.17-5.9.14-9a23.17,23.17,0,0,1,2.19,2.47,37.42,37.42,0,0,1,1.88,3.47c0,.92,0,1.84,0,2.76l-2.86,3.21c-.64,1-1.27,1.92-1.9,2.88a35.88,35.88,0,0,1-.26,4.41C436.3,512,435.14,512.1,434.49,512.28Z"/><path class="cls-22" d="M379.56,538.25c-1.35-2-2.7-4-4-5.93l13.07,4-.07-.08C386.24,540.11,382.87,539,379.56,538.25Z"/><path class="cls-26" d="M446.22,521.49c.07-2.42.1-4.85.23-7.27.16-3,1.56-4.51,4.72-3.81C452.28,517.8,451.51,519.53,446.22,521.49Z"/><path class="cls-9" d="M428.46,497.27l-1,18.15-2-2.92c0-.39,0-.77,0-1.15v0q0-6.57,0-13.15Z"/><path class="cls-22" d="M425.45,498.23q0,6.57,0,13.15C421.11,507.53,421.1,502.48,425.45,498.23Z"/><path class="cls-10" d="M432.56,438.07l5.7,20.23-2.76-4.95Z"/><path class="cls-8" d="M354,515.5l-8.55-10,1.28-1.16,8.7,9.85Z"/><path class="cls-9" d="M439.61,514.46l2.67-.23.18,8.1C437.46,521.17,438.17,518,439.61,514.46Z"/><path class="cls-4" d="M334.5,489.33c-1-.51-1.95-1-2.92-1.55l1-1.25,1.87,2.81Z"/><path class="cls-8" d="M356.55,516.7l.51.61-.91.57c-.1-.26-.32-.55-.26-.76S356.31,516.84,356.55,516.7Z"/><path class="cls-4" d="M334.48,489.34l.75,1.06-.73-1.07Z"/><path class="cls-25" d="M401.46,563.16l-.48.08-.46-.15Z"/><path class="cls-22" d="M425.45,511.35c0,.38,0,.76,0,1.15C425.43,512.11,425.44,511.73,425.45,511.35Z"/><path class="cls-27" d="M325.34,296.61l-3.5-6.32c8.28,1.46,16.46,3.88,25.08,2.17,1.36-.27,3.08,1.3,4.64,2-.92,1.09-1.83,2.19-2.74,3.28-.4.54-.8,1.09-1.19,1.65l0,.1c-6.73,4.11-13.47,3.53-20.2,0v-.11l-1-.91-.07-.08Z"/><path class="cls-28" d="M351.56,294.47c-1.56-.71-3.28-2.28-4.64-2-8.62,1.71-16.8-.71-25.08-2.17a7.69,7.69,0,0,1,.22-1.67c4.91-.34,9.84-.86,14.75-.77,6.58.14,13.16.76,20.92,1.24Z"/><path class="cls-17" d="M348.37,267.49c2.05,6,1.11,7-3.92,8A27.55,27.55,0,0,1,329.27,274c-1.6-.57-2.36-3.48-2.85-6C334.1,272.65,341.15,273.07,348.37,267.49Z"/><path class="cls-21" d="M367.46,245.28l9.05,5-17,0,2-5,3-.32Z"/><path class="cls-23" d="M327.4,299.5c6.73,3.53,13.47,4.11,20.2,0-1.88,4.76-6,5.9-10.41,5.83C333,305.26,329,304.23,327.4,299.5Z"/><path class="cls-20" d="M387.29,259.36q0,7,0,14Q387.32,266.35,387.29,259.36Z"/><path class="cls-23" d="M347.63,299.4c.39-.56.79-1.11,1.19-1.65Z"/><path class="cls-23" d="M325.34,296.61l1,1.79Z"/><path class="cls-23" d="M326.4,298.48l1,.91Z"/><path class="cls-16" d="M318.5,582.35l1-2h0l-1,2Z"/><path class="cls-16" d="M318.48,582.33l-.23.42.25-.4Z"/><path class="cls-24" d="M279.52,270.31l-7.07-5.94-.06-5.11c0-2.31-.4-4.78.29-6.89.51-1.58,2.47-2.7,3.79-4h0l1,1v0l2.07,10.93Z"/><path class="cls-7" d="M311.53,243l-3.49.18-1.56-.49-1.17-.67c-1.15-2.66-2.29-5.33-3.65-8.5l-5.91,1.22,2.72-2.49,16.92,2.23v0c.35.35.7.71,1.06,1.06.13.38.27.76.4,1.13Z"/><path class="cls-17" d="M315.39,234.45l-16.92-2.23c1.09-3.53,3.73-4.18,7-3.9,2,.16,4,0,5.94,0l3.07,2h0Z"/><path class="cls-17" d="M276.47,248.35c-1.32,1.32-3.28,2.44-3.79,4-.69,2.11-.25,4.58-.29,6.89-2.79-2.7-4.07-10.68-2-13.45.5-.68,2-1.54,2.29-1.32A37.65,37.65,0,0,1,276.47,248.35Z"/><path class="cls-25" d="M295.75,234.71l5.91-1.22c1.36,3.17,2.5,5.84,3.65,8.5l-.72.26C300.6,241,296.3,240,295.75,234.71Z"/><path class="cls-17" d="M279.55,260.3l-2.07-10.93,6,10.14-1.29,1.1Z"/><path class="cls-21" d="M314.48,230.37l-3.07-2Z"/><path class="cls-17" d="M277.47,249.34l-1-1Z"/><path class="cls-2" d="M254.48,494.35c-3.21.28-3.07-1.9-3-4.05Z"/><path class="cls-10" d="M421.76,415.08q5.3,11.13,10.6,22.25c-1.36-2.12-2.79-4.21-4.06-6.38-2.41-4.13-4.82-8.26-7-12.51C420.89,417.61,421.58,416.22,421.76,415.08Z"/><path class="cls-25" d="M364.47,245.07l-3,.32-3.8-.13-2.11-2c.3-.64.59-1.28.88-1.92l3.31-2.89Q362.12,241.78,364.47,245.07Z"/><path class="cls-21" d="M355.59,243.29l2.11,2-3.37-1.41Z"/><path class="cls-7" d="M364.47,245.07q-2.36-3.28-4.69-6.59l-.24-1.06,1.93-1,0,0c5.84-2.42,11.8-3,17.81-.82.95.35,1.57,1.63,2.35,2.49l-6.17-1.81c-1.23,2.85-2.17,5-3.11,7.18l-4.94,1.9Z"/><path class="cls-25" d="M372.4,243.38c.94-2.16,1.88-4.33,3.11-7.18l6.17,1.81C379.76,242.6,376.47,244.5,372.4,243.38Z"/><path class="cls-7" d="M386.2,243.55a.5.5,0,0,1-.35.74A.78.78,0,0,1,386.2,243.55Z"/><path class="cls-25" d="M311.53,243l5.31-6.36,5,4-.61,2.07Z"/><path class="cls-14" d="M306.48,242.66l1.56.49Z"/><path class="cls-17" d="M316.44,235.48c-.36-.35-.71-.71-1.06-1.06C315.73,234.77,316.08,235.13,316.44,235.48Z"/><path class="cls-14" d="M361.47,236.37l-1.93,1Z"/><path class="cls-12" d="M476.38,526.19l-4.85,9.13Z"/><path class="cls-12" d="M471.33,536.16c-.63,1-1.26,2.08-1.9,3.11Z"/><path class="cls-18" d="M464.48,559.33l-4.27,0c0-.33.07-.67.11-1Z"/><path class="cls-18" d="M470.5,560.39l-3.3-.9Z"/><path class="cls-18" d="M477.49,562.34l-2-1Z"/><path class="cls-17" d="M484.52,541.33l-1,1.07C483.82,542,484.17,541.69,484.52,541.33Z"/><path class="cls-18" d="M474.47,561.22l-1.38-.72Z"/><path class="cls-2" d="M438.51,504.43l2.86-3.21C440.94,502.76,443,506.53,438.51,504.43Z"/><path class="cls-23" d="M495.22,561.13l-7.94,3.41,8.27-10,16.31-5.17c-.11.34-.23.67-.35,1l-1,1-6.59,2.78C498.83,553.75,497.82,558.43,495.22,561.13Z"/><path class="cls-17" d="M494.62,545.5l-2.05.93-.16-.16,1.87-1.17Z"/><path class="cls-17" d="M491.51,547.36l-.47.4.43-.44Z"/><path class="cls-17" d="M491.47,547.32l.94-1.05.16.16-1.06.93Z"/><path class="cls-2" d="M397.08,532.22l-1.56.77c.18-.69.35-1.37.52-2.06Z"/></svg>